<svg xmlns="http://www.w3.org/2000/svg" viewBox="0 0 55 70">
    <title>
        Group 8 Copy 4
    </title>
    <g id="Perlorg" fill="none" fill-rule="evenodd">
        <g id="Home" transform="translate(-797 -883)">
            <g id="Group-2" transform="translate(570 883)">
                <g id="Group-8-Copy-4" transform="translate(227)">
                    <path id="Rectangle-14" fill="#61C5BA" d="M0 0h55v70H0z"/>
                    <path id="Mouse-2" fill="#00456E" d="M26.555 24c-.307 0-.553.248-.555.556v3.748c0 .307.248.556.555.556.307.001.555-.249.555-.556v-3.748c.002-.31-.25-.556-.555-.556zm7.596 16.677c0 4.304-3.406 7.803-7.597 7.803-4.188-.001-7.596-3.499-7.595-7.802l-.001-11.536c.001-4.306 3.409-7.807 7.595-7.809 4.189.001 7.597 3.503 7.597 7.809l.001 11.535zm-7.04-20.396l.001-1.386c-.001-.305-.25-.553-.557-.552-.305 0-.557.246-.554.556l.001 1.384c-4.541.298-8.154 4.134-8.152 8.858V40.68c-.002 4.912 3.902 8.909 8.704 8.909 4.798 0 8.704-3.995 8.705-8.911l.001-11.537c-.002-4.722-3.613-8.558-8.149-8.86z"/>
                </g>
            </g>
        </g>
    </g>
</svg>
