<svg xmlns="http://www.w3.org/2000/svg" viewBox="0 0 55 70">
    <title>
        Group 3
    </title>
    <g id="Perlorg" fill="none" fill-rule="evenodd">
        <g id="Home" transform="translate(-477 -883)">
            <g id="cpan" transform="translate(250 883)">
                <g id="Group-3" transform="translate(227)">
                    <path id="Rectangle-14" fill="#61C5BA" d="M0 0h55v70H0z"/>
                    <path id="Combined-Shape" fill="#00456E" d="M21 33c2.7614237 0 5-2.2385763 5-5s-2.2385763-5-5-5-5 2.2385763-5 5 2.2385763 5 5 5zm0-1c-2.209139 0-4-1.790861-4-4s1.790861-4 4-4 4 1.790861 4 4-1.790861 4-4 4zm14 1c2.7614237 0 5-2.2385763 5-5s-2.2385763-5-5-5-5 2.2385763-5 5 2.2385763 5 5 5zm0-1c-2.209139 0-4-1.790861-4-4s1.790861-4 4-4 4 1.790861 4 4-1.790861 4-4 4zM21 47c2.7614237 0 5-2.2385763 5-5s-2.2385763-5-5-5-5 2.2385763-5 5 2.2385763 5 5 5zm0-1c-2.209139 0-4-1.790861-4-4s1.790861-4 4-4 4 1.790861 4 4-1.790861 4-4 4zm14 1c2.7614237 0 5-2.2385763 5-5s-2.2385763-5-5-5-5 2.2385763-5 5 2.2385763 5 5 5zm0-1c-2.209139 0-4-1.790861-4-4s1.790861-4 4-4 4 1.790861 4 4-1.790861 4-4 4z"/>
                </g>
            </g>
        </g>
    </g>
</svg>
