<svg xmlns="http://www.w3.org/2000/svg" viewBox="0 0 33 32">
    <title>
        ic_header_about
    </title>
    <g id="Perlorg" fill="none" fill-rule="evenodd">
        <g id="Home" fill="#F0F0F0" transform="translate(-592 -84)">
            <g id="header">
                <g id="btn-about" transform="translate(559 84)">
                    <g id="ic_header_about" transform="translate(33)">
                        <path id="Stroke-1" d="M26.0663867 10.3160058c0-1.02580281-.8237899-1.85988441-1.8431049-1.85988441s-1.843105.8340816-1.843105 1.85988441c0 1.0258028.82379 1.8598844 1.843105 1.8598844s1.8431049-.8340816 1.8431049-1.8598844z"/>
                        <path id="Stroke-3" d="M6.88630829 10.3160058c0 1.0258028.82378999 1.8598844 1.84310497 1.8598844 1.01931498 0 1.84310494-.8340816 1.84310494-1.8598844 0-1.02580281-.82378996-1.85988441-1.84310494-1.85988441-1.01931498 0-1.84310497.8340816-1.84310497 1.85988441z"/>
                        <path id="Stroke-5" d="M10.5986191 22.4183918l-.0261009.1023816.0167036.1047901c.0239077.1499853.0758915.4002068.162438.7181374.1436975.5278759.3351709 1.0561178.5823613 1.5526291 1.0749248 2.1591145 2.8277166 3.0419306 5.2529772 1.8209772l-.3420711-.0000023c2.4228416 1.2197745 4.2007186.3406475 5.3227109-1.8131516.2583148-.4958663.4611305-1.0236197.6157839-1.5510695.0931711-.317763.1502323-.5678728.1771161-.7177715l.0196387-.1095018-.0273851-.1074187-1.8324672-7.1879123-.7989119.2526543 1.8324672 7.1879123-.0077463-.2169206c-.0208073.116018-.0699142.3312622-.1521739.6118115-.1377315.4697374-.318135.9391712-.5446599 1.374013-.9247269 1.7751244-2.2671571 2.4389311-4.2622969 1.4344822l-.1710351-.0861073-.171036.086105c-1.9928617 1.00327-3.3034956.3431524-4.184603-1.4266567-.2161667-.4341967-.3861467-.903142-.5139018-1.3724533-.0763251-.2803817-.1210191-.4955143-.1394986-.6114456l-.0093973.2071718 1.8324672-7.1879123-.7989119-.2526543-1.8324672 7.1879123z"/>
                        <path id="Stroke-7" d="M21.2811027 12.9031903c-.6616134-.0744089-1.3458218.3337108-2.101047 1.1028056-.4417055.4498175-.9024207 1.0217507-1.3748845 1.6887078-.4094781.578043-.805441 1.1954524-1.1736782 1.8126531-.2210723.3705383-.3843665.6597119-.4750205.827359l.8699597-.017077c-.0253205-.0427275-.0724278-.1207339-.1392131-.2290124-.110592-.1793021-.2366116-.3788024-.375966-.5935101-.3983341-.6137261-.8245091-1.2276399-1.2623451-1.8022876-.4439-.5826067-.8759903-1.093001-1.2897451-1.5119149-.8591856-.8698988-1.6105279-1.3322946-2.311617-1.2534461l.1117612.9937351c.2938948-.0330531.8326392.2985043 1.4883815.9624231.3802801.3850219.7858534.8640936 1.2057938 1.415254.4210783.5526537.8333662 1.1465629 1.2189602 1.7406599.2312128.3562368.401537.6323825.493702.7879081l.4500552.7594547.4199045-.7765316c.0843317-.155955.2408249-.4330851.4541578-.7906514.3557714-.5963069.7380669-1.1924052 1.130913-1.7469694.4441097-.626931.8731218-1.1595078 1.2723918-1.5661105.5559911-.5662018 1.0136587-.8391934 1.2757746-.8097143l.1117612-.9937351z"/>
                        <path id="Stroke-9" d="M24.6223433 5.08476495c.1443988-.00442919.3887484-.01981582.7006005-.05288201.5198151-.05511686 1.0403458-.14169066 1.5306823-.26758375 1.0193453-.26171521 1.7844445-.65584135 2.1954519-1.25698145.577804-.84492943 1.640494-.70458239 2.009328.1168297.5836788 1.30055761.3885018 4.75976688-.6547572 5.7456566-.0649209.06108366-.0649209.06108366-.1299559.12126704-.5918545.54548222-1.2278864 1.04261162-1.8638711 1.48032942-.3803583.2617824-.6740237.4443151-.8370233.5374782l.4962207.8681964c.0488171-.0279016.1358711-.0796895.2557467-.1542002.1972508-.1226046.4163864-.2655566.6520053-.4277218.6725969-.4629162 1.3451466-.9885883 1.9746347-1.5687555.069531-.0643438.069531-.0643438.1390619-.1297651 1.4004145-1.32340509 1.6209246-5.23160432.8802322-6.88202091-.6793992-1.5130567-2.7144267-1.78181814-3.7470945-.27173626-.2395489.35036461-.8138496.64620457-1.618662.85283883-.438157.1124961-.9124408.19137819-1.3874403.24174317-.2850366.0302229-.5049338.04406977-.6258188.04777772l.0306589.9995299z"/>
                        <path id="Stroke-11" d="M16.3896147.60128374c-.0955829.0217028-.2700468.06436572-.5122.12841872-.4009735.10606318-.8471134.2343572-1.3272624.38534322-1.3724248.43156802-2.7452942.95926584-4.0301585 1.5878918-3.2495497 1.58985756-5.4065791 3.54819447-5.92501212 5.95401809-.09019994.38786852-.14375833.79855354-.16135431 1.22246225-.05893975 1.41993088.27872206 2.92028488.87527082 4.40857078.1913735.4774437.39638102.9192229.60176611 1.3152774.12438323.2398545.22242733.4130495.28093945.5093085l-.07130634-.2218447c.00667235.0878459.01961543.2516698.03850349.4806358.03144088.3811347.0681735.8057106.10987391 1.2629031.11917705 1.3066263.25431662 2.6134157.40290644 3.8341776.19511475 1.6029943.39879328 2.9354816.60984311 3.9121084.24128235 1.8455087 6.45834164 6.0281447 9.26685684 6.0281447 2.7990874 0 8.8805384-4.1737587 9.1299929-6.068492.2039994-.9363111.4076559-2.2688339.6027728-3.8718829.1485874-1.2207701.2837389-2.5275691.4029374-3.8342049.0417079-.4571959.0784487-.881775.1098979-1.2629124.018893-.2289676.0318399-.3927923.0385145-.4806384l-.0712949.2218149c.0585112-.0962662.1565543-.2694745.2809366-.5093469.2053839-.3960847.4103904-.837895.6017629-1.3153692.5964458-1.4881317.9340957-2.9883142.8752945-4.40807963-.017567-.42415638-.0711333-.83507251-.1631397-1.23100019-.5164124-2.3966756-2.6640981-4.35466186-5.8981919-5.94428369-1.2797362-.62901599-2.6471143-1.15702593-4.01405-1.58884025-.4782307-.15107287-.9225912-.27944016-1.3219704-.38556408-.2412033-.0640931-.4149949-.10678522-.5102294-.12850719l-.2218997-.00010883zm.2214215.97517819l-.2218998-.00010884c.084043.01916932.2463969.05905176.4757971.12000848.3849601.10229247.8145776.2264008 1.2775539.3726548 1.3222275.41769103 2.6440125.92809531 3.8741619 1.53273833 2.9855755 1.46747015 4.9263662 3.23683585 5.3635044 5.26533924.0792306.34123587.1247439.69037547.1397986 1.0538747.0520831 1.25755426-.2560571 2.62662436-.8043709 3.99466676-.1786902.445832-.3701795.8585116-.5612914 1.2270724-.1135151.218915-.2005034.3725931-.2477244.4502842l-.0622192.1023669-.0090757.1194481c-.0065156.0857546-.0192928.2474313-.0380016.4741657-.0312204.378366-.0677142.8000906-.1091496 1.2542986-.1183537 1.2973757-.2525137 2.5945881-.3997465 3.8042287-.191733 1.5752478-.3913474 2.8813232-.5945454 3.8218554-.183456 1.380611-5.8058931 5.239344-8.1455464 5.239344-2.3515916 0-8.10778043-3.8725773-8.28241595-5.1990224-.21024783-.9808547-.40988145-2.2868798-.60161044-3.8620579-.14723433-1.2096256-.28138192-2.5068227-.39971383-3.8041831-.04142772-.4542028-.07791324-.8759225-.10912535-1.254284-.01870373-.2267316-.031477-.3884061-.03799039-.4741592l-.00907402-.1194656-.06223232-.1023792c-.04722008-.0776823-.13420735-.2313454-.24772158-.4502407-.19111068-.3685284-.38259892-.7811743-.56128815-1.226973-.54840074-1.3681649-.85654682-2.7373698-.80434219-3.99504331.01507938-.36328066.06058538-.71222005.13801786-1.04543253.43889146-2.0363986 2.38847843-3.80640142 5.38868426-5.27426633 1.2353955-.6044231 2.5628046-1.11464708 3.8906582-1.53219937.4649484-.1462061.896399-.27027599 1.2830068-.37253926.2303954-.06094288.3934664-.10081981.4779021-.11999157z"/>
                        <path id="Stroke-13" d="M16.2844729 5.02153215c-2.8901743 0-5.0809779 3.61018762-5.0809779 8.01214975 0 3.7905126 1.8523565 6.4240464 5.0728305 8.4020931l.2718946.1670003.2719004-.1669919c3.1319398-1.9235308 4.929148-4.5879999 4.929148-8.4106486C21.7492685 8.65682017 19.4551451 5 16.5482298 5l-.3066619.02328021.042905-.00174806zm.042905.94610465l.2637569-.02153214c2.1731679.00174806 4.1581337 3.16577271 4.1581337 7.07903014 0 3.4730286-1.6064544 5.8546938-4.4729293 7.6151851l.543795.0000083c-2.9587889-1.8173171-4.6166392-4.1743174-4.6166392-7.6066463 0-3.94775122 1.8912424-7.06429703 4.0809779-7.06429703l.042905-.00174807z"/>
                        <path id="Stroke-15" d="M5.34234734 11.4285835c-.16326437-.0867159-.45910242-.2607739-.842892-.5158581-.64245779-.427007-1.28509581-.92277166-1.88319964-1.48000223-.03352784-.03130998-.03352784-.03130998-.06703817-.06290178-1.0433945-.98590042-1.23862654-4.44505606-.65488877-5.74574512.36720094-.81790789 1.42957288-.95232689 2.00931436-.10456431.40595992.59375759 1.14573782.98917624 2.12364407 1.25462956.47922421.13008574.98776544.22020772 1.49557836.27829847.3046873.0348544.54354627.05146003.68500486.05653353l.03584261-.99935745c-.11698133-.00419561-.3303922-.01903207-.60719469-.05069661-.46133673-.05277415-.92194516-.13440165-1.34726063-.24985382-.76898846-.20874244-1.32053846-.50355141-1.56014214-.8539961-1.03277259-1.51023513-3.06818978-1.2526994-3.74709324.25949854-.74074626 1.65053659-.52017213 5.55870776.88037622 6.88208182.0360881.0340219.0360881.0340219.07219276.0677383.64106452.5972554 1.32610686 1.1257329 2.01132944 1.5811633.24019007.1596414.46366067.2989902.66493086.4174087.12261009.0721383.21191344.1219553.26241763.14878l.46907811-.8831567z"/>
                        <path id="Stroke-17" d="M15.9743779 21.0283642v6.2427745h1v-6.2427745z"/>
                    </g>
                </g>
            </g>
        </g>
    </g>
</svg>
