<svg xmlns="http://www.w3.org/2000/svg" class="logo-svg" viewBox="0 0 143 65">
    <defs>
        <!-- <linearGradient id="a" x2="0%" y2="100%">
            <stop offset="0%" stop-color="#003555"/>
            <stop offset="100%" stop-color="#0073a1"/>
        </linearGradient> -->
    </defs>
    <g fill="none" fill-rule="evenodd">
        <path fill="#61C5BA" d="M78.67270318 56.6955997c0 .1818175-.03636295.3522688-.10908993.5113591-.07272698.1590902-.16817971.297724-.28636105.4159053-.11818135.1181813-.25908776.2113614-.42272346.2795429-.16363571.0681816-.33181433.1022718-.50454091.1022718-.18181745 0-.35454144-.0318175-.51817715-.0954536-.1636357-.0636362-.3068148-.1545435-.42954158-.2727249-.12272678-.1181813-.2204522-.2545423-.29317917-.4090872C76.03636294 57.0728683 76 56.9046897 76 56.7228722c0-.1818174.03636294-.3522687.10908993-.511359.07272698-.1590903.1704524-.297724.29317917-.4159054.12272678-.1181813.26590588-.2113613.42954158-.2795429.16363571-.0681815.3363597-.1022718.51817715-.1022718.17272658 0 .3409052.0340903.50454091.1022718.1636357.0681816.30454211.1590889.42272346.2727248.11818134.1136359.21363407.249997.28636105.4090872.07272698.1590903.10908993.3249963.10908993.4977228zm0 4.3772333c0 .1818174-.03636295.3522688-.10908993.511359-.07272698.1590903-.16817971.2954513-.28636105.4090872-.11818135.113636-.25908776.2045433-.42272346.2727249-.16363571.0681815-.33181433.1022718-.50454091.1022718-.18181745 0-.35454144-.0318176-.51817715-.0954537-.1636357-.0636361-.3068148-.1545435-.42954158-.2727248-.12272678-.1181814-.2204522-.2545424-.29317917-.4090873C76.03636294 61.4364653 76 61.2682867 76 61.0864692c0-.1818174.03636294-.3522687.10908993-.511359.07272698-.1590903.1704524-.297724.29317917-.4159053.12272678-.1181814.26590588-.2113614.42954158-.279543.16363571-.0681815.3363597-.1022718.51817715-.1022718.17272658 0 .3409052.0340903.50454091.1022718.1636357.0681816.30454211.1590889.42272346.2727248.11818134.113636.21363407.249997.28636105.4090873.07272698.1590902.10908993.3295415.10908993.511359zm5.19335767-4.3772333c0 .1818175-.03636294.3522688-.10908992.5113591-.07272698.1590902-.16817971.297724-.28636106.4159053-.11818134.1181813-.25908775.2113614-.42272346.2795429-.16363571.0681816-.33181433.1022718-.50454091.1022718-.18181745 0-.35454144-.0318175-.51817714-.0954536-.16363571-.0636362-.30681481-.1545435-.42954159-.2727249-.12272678-.1181813-.22045219-.2545423-.29317917-.4090872-.07272698-.1545448-.10908993-.3227234-.10908993-.5045409 0-.1818174.03636295-.3522687.10908993-.511359.07272698-.1590903.17045239-.297724.29317917-.4159054.12272678-.1181813.26590588-.2113613.42954159-.2795429.1636357-.0681815.33635969-.1022718.51817714-.1022718.17272658 0 .3409052.0340903.50454091.1022718.16363571.0681816.30454212.1590889.42272346.2727248.11818135.1136359.21363408.249997.28636106.4090872.07272698.1590903.10908992.3249963.10908992.4977228zm0 4.3772333c0 .1818174-.03636294.3522688-.10908992.511359-.07272698.1590903-.16817971.2954513-.28636106.4090872-.11818134.113636-.25908775.2045433-.42272346.2727249-.16363571.0681815-.33181433.1022718-.50454091.1022718-.18181745 0-.35454144-.0318176-.51817714-.0954537-.16363571-.0636361-.30681481-.1545435-.42954159-.2727248-.12272678-.1181814-.22045219-.2545424-.29317917-.4090873-.07272698-.1545448-.10908993-.3227234-.10908993-.5045409 0-.1818174.03636295-.3522687.10908993-.511359.07272698-.1590903.17045239-.297724.29317917-.4159053.12272678-.1181814.26590588-.2113614.42954159-.279543.1636357-.0681815.33635969-.1022718.51817714-.1022718.17272658 0 .3409052.0340903.50454091.1022718.16363571.0681816.30454212.1590889.42272346.2727248.11818135.113636.21363408.249997.28636106.4090873.07272698.1590902.10908992.3295415.10908992.511359z"/>
        <path fill="#F8FAFC" d="M96.0550445 31.09402303c0 1.53465424-.2863199 2.82795237-.8589684 3.87993307-.5726484 1.0519807-1.3444674 1.8997407-2.31548 2.5433054-.9710126.6435647-2.0913949 1.1138549-3.3611806 1.4108847-1.2697857.2970299-2.5893472.4455426-3.9587239.4455426h-3.17444838v9.9133218H76V23h9.71007741c1.44406999 0 2.79475319.14232467 4.05208999.42697828 1.2573368.2846536 2.3528218.74256776 3.2864877 1.3737562.933666.63118844 1.6681389 1.46038434 2.2034407 2.48761258.5353018 1.02722825.8029487 2.29577421.8029487 3.80567597zm-6.3862432.03712854c0-.61881219-.1244869-1.12623058-.3734645-1.52227038-.2489776-.39603981-.5850923-.70544126-1.0083542-.92821365-.4232619-.22277239-.9025366-.37128509-1.4378384-.44554255-.5353018-.07425747-1.08926866-.11138564-1.66191711-.11138564h-2.80098387v6.20046715h2.68894451c.59754622 0 1.17018607-.0495042 1.71793677-.1485142.5477507-.0990099 1.0394741-.2722747 1.4751848-.5197996.4357108-.2475249.7780499-.5754904 1.0270275-.98390647.2489776-.40841605.3734645-.92202246.3734645-1.54083466zm20.3185254 6.79452393c0-.965347-.304993-1.7945429-.9149881-2.4876126-.609995-.6930696-1.524974-1.0395993-2.7449641-1.0395993-.5975463 0-1.1452887.0928205-1.6432439.2784641-.4979552.1856437-.9336594.4393529-1.3071258.7611352-.3734664.3217824-.672235.6992521-.8963149 1.1324207-.2240798.4331685-.3485667.8848946-.3734645 1.3551919h7.8801013zm5.6393142 2.3390984v.7425709c0 .2475249-.0124487.48267-.0373465.7054424h-13.482069c.0497955.5198022.2054042.9900924.4668307 1.4108847.2614264.4207923.5975411.785886 1.0083542 1.0952921.410813.3094061.8714146.5507393 1.3818187.7240067.510404.1732674 1.0394735.2598998 1.5872242.2598998.9710126 0 1.7926263-.1794528 2.4648658-.5383639.6722395-.3589111 1.2199819-.8230133 1.6432438-1.3923205l4.2574955 2.6732553c-.8714215 1.2623769-2.0229256 2.2338975-3.4545468 2.9145909-1.4316211.6806934-3.0935216 1.021035-4.9857512 1.021035-1.3942745 0-2.713836-.216581-3.9587239-.6497496-1.2448879-.4331685-2.3341486-1.0643475-3.2678145-1.8935558-.933666-.8292083-1.6681388-1.8502331-2.2034407-3.063105-.5353018-1.2128719-.8029487-2.5989905-.8029487-4.1583972 0-1.5099017.2614226-2.8774562.7842755-4.1027043.522853-1.2252482 1.2324284-2.2648371 2.1287478-3.11879789.8963193-.85396083 1.9544582-1.51607994 3.1744483-1.98637721 1.2199902-.47029727 2.5395516-.70544238 3.9587239-.70544238 1.3693767 0 2.6266947.22895708 3.7719916.6868781 1.1452969.45792103 2.1287436 1.12004014 2.9503697 1.98637722.821626.86633706 1.4627337 1.91830206 1.9233422 3.15592636.4606086 1.2376244.6909094 2.6484951.6909094 4.2326543zm16.0367034-4.4925541c-.2738754-.0742574-.5415223-.1237617-.8029487-.1485142-.2614265-.0247524-.5166247-.0371285-.7656023-.0371285-.821626 0-1.5125285.1485127-2.0727281.4455425-.5601995.2970299-1.0083525.6559356-1.3444722 1.0767279-.3361198.4207923-.5788693.8787064-.7282558 1.3737562-.1493866.4950497-.2240787.9282118-.2240787 1.2994991v9.5049078h-6.1248181V30.79699466h5.9007394V33.47025h.0746929c.4730574-.94059456 1.1452868-1.70791017 2.0167083-2.30196988.8714216-.59405971 1.8797657-.8910851 3.0250626-.8910851.2489776 0 .4917271.01237605.7282558.03712854.2365287.02475249.4294835.06188066.57887.11138564l-.2614251 5.3465106zm4.3359573 13.5147908V23h6.1995109v26.2870106h-6.1995109z"/>
        <path fill="#61C5BA" d="M94.2268966 58.8731034c0 .5986237-.1110334 1.1151703-.3331034 1.5496552-.2220701.434485-.5149407.7917228-.8786207 1.0717242-.36368.2800014-.7740207.4859763-1.2310345.617931-.4570138.1319547-.9204574.197931-1.3903448.197931h-2.5489655v-6.835862h2.4717241c.482761 0 .9590781.0563212 1.4289655.1689655.4698874.1126442.888274.299309 1.2551724.56.3668984.2606909.6629874.6098828.8882759 1.0475862.2252885.4377033.337931.9783876.337931 1.6220689zm-1.7186207 0c0-.3862088-.062758-.7064355-.1882758-.9606896-.1255179-.2542542-.2928726-.4570107-.502069-.6082759-.2091964-.1512651-.447355-.2590801-.7144828-.3234482-.2671277-.0643682-.5422974-.0965518-.8255172-.0965518h-.8206897v3.9972414h.782069c.2960934 0 .5809182-.0337928.8544828-.1013793.2735646-.0675865.5149415-.1786199.7241379-.3331034.2091964-.1544836.3765511-.3604585.502069-.6179311.1255178-.2574725.1882758-.57609.1882758-.9558621zm11.3834482-.0096551c0 .5406923-.0933324 1.0347104-.28 1.4820689-.1866676.4473586-.4457454.8303433-.7772413 1.1489656-.331496.3186222-.7257449.5648267-1.1827587.7386206-.4570137.173794-.952641.2606897-1.4868965.2606897-.5342556 0-1.0282736-.0868957-1.482069-.2606897-.4537954-.1737939-.8464351-.4199984-1.177931-.7386206-.3314959-.3186223-.5905738-.701607-.7772414-1.1489656-.1866676-.4473585-.28-.9413766-.28-1.4820689 0-.5471292.0933324-1.0411472.28-1.482069.1866676-.4409217.4457455-.8158605.7772414-1.1248276.3314959-.308967.7241356-.5471256 1.177931-.7144827.4537954-.1673572.9478134-.2510345 1.482069-.2510345.5342555 0 1.0298828.0836773 1.4868965.2510345.4570138.1673571.8512627.4055157 1.1827587.7144827.3314959.3089671.5905737.6839059.7772413 1.1248276.1866676.4409218.28.9349398.28 1.482069zm-1.7668965 0c0-.2960935-.0482754-.5728723-.1448276-.8303449-.0965522-.2574725-.2301141-.4779301-.4006897-.6613793-.1705755-.1834492-.3765505-.3282753-.617931-.4344827-.2413805-.1062074-.5068951-.1593104-.7965517-.1593104-.2896566 0-.553562.053103-.7917242.1593104-.2381621.1062074-.444137.2510335-.617931.4344827-.173794.1834492-.3073558.4039068-.4006896.6613793-.0933338.2574726-.14.5342514-.14.8303449 0 .308967.0482753.5937918.1448275.8544827.0965523.260691.2301141.4843669.4006897.6710345s.3749413.3331029.6131034.4393104c.2381622.1062074.5020676.1593103.7917242.1593103.2896566 0 .553562-.0531029.7917241-.1593103.2381621-.1062075.4441371-.2526428.6179311-.4393104.1737939-.1866676.308965-.4103435.4055172-.6710345.0965522-.2606909.1448276-.5455157.1448276-.8544827zm10.3213792 2.5006896c-.3025302.347588-.6758598.6227576-1.12.8255173-.4441401.2027596-.9558591.3041379-1.5351724.3041379-.5278187 0-1.0154-.0868957-1.4627586-.2606897-.4473586-.1737939-.8351708-.4199984-1.1634483-.7386206-.3282775-.3186223-.5857462-.6999978-.7724138-1.144138-.1866676-.4441401-.28-.9333306-.28-1.4675862 0-.5471292.0949416-1.0427564.2848276-1.4868965.189886-.4441402.4521822-.8222973.7868966-1.1344828.3347143-.3121855.727354-.5519532 1.177931-.7193103.450577-.1673572.9365491-.2510345 1.457931-.2510345.4827611 0 .957469.0852865 1.424138.2558621.466669.1705755.8448261.4199983 1.1344827.7482758l-1.12 1.12c-.1544835-.2124148-.3572401-.3701144-.6082758-.4731034-.2510358-.1029891-.5085045-.1544828-.7724138-.1544828-.2896567 0-.5551712.0531029-.7965518.1593104-.2413805.1062074-.4489646.2526427-.6227586.4393103-.1737939.1866676-.308965.4071252-.4055172.6613793-.0965522.2542542-.1448276.5326422-.1448276.8351724 0 .3089671.0482754.5921826.1448276.8496552.0965522.2574725.2301141.4779301.4006896.6613793.1705756.1834492.3749414.3266662.6131035.4296552.2381621.102989.4988491.1544827.782069.1544827.3282775 0 .6147114-.0643671.8593103-.1931034.2445989-.1287363.4409188-.2960909.5889655-.502069l1.1489655 1.0813793z"/>
        <path fill="url(#a)" d="M55 4.99933399V63.001332C55 64.1051659 54.1138045 65 52.9936907 65H2.00630931C.89825528 65 0 64.1058759 0 63.001332V0h55v4.99933399z"/>
        <path fill="#F8FAFC" d="M29.3796113 47.1036904c-.2157541.0279273-.3406118.2356045-.3406118.4564836 0 .8611748.6098049 1.6436455 1.3110055 1.8193333.2112592.0528079.4125298.0365593.5084205-.161978.0968895-.1980296-.0204767-.4178932-.2157541-.5164002-.4614739-.2325579-.716683-.4503904-.8220629-1.193763-.0314641-.2193558-.2247438-.4326185-.4409972-.4036757m-3.6833012.4036757c-.1053799.7433726-.3610884.9612051-.8220629 1.193763-.1952773.098507-.3121441.3183706-.2162534.5164002.0963901.1985373.2981601.2147859.5084204.161978.7017001-.1756878 1.3110055-.9581585 1.3110055-1.8193333 0-.2208791-.1248577-.4285563-.3401123-.4564836-.2162535-.0289428-.4095332.1843199-.4409973.4036757m12.0492642-12.751074c0-3.0227438-1.77198-6.7421456-6.709851-10.8073375-.8680105-.7144298-1.5322532-1.5740812-1.7564976-2.5500116-.0194778-.0853051-.0029966-.2158015.1068782-.243221.1163673-.0299583.2042671.0426525.2627005.1584237.5958208 1.1815765 1.0243323 1.5639259 1.9477796 2.2626149 2.9736101 2.2478896 8.528278 5.4026532 8.528278 11.590316 0 4.789777-4.1123121 8.8255183-5.8698086 9.7075116-.2382284.1198333-.4839483.1650247-.5718481.0035544-.0893981-.166548.0109875-.3422358.2402261-.5819023 2.1375633-2.2438275 3.8221429-5.0223349 3.8221429-9.5399482m-11.9498775.1040925c0 2.774953.1902831 4.9476929 1.6056696 8.8889894.4165252 1.1577114.8125737 1.259265 1.1282139 1.3024253.5893282.0797196 1.1242184.2528685 1.6311405.490504.5074216.2381433.9893722.5407731 1.4713228.9967489.1423377.1325275.2577062.2031073.3910542.214786.1328485.0106631.2826777-.033005.4934375-.0868284 4.6247279-1.4481548 9.9716326-5.1558779 9.9716326-12.102654 0-9.6140824-13.3253095-11.1551587-13.3992253-16.60858873-.0239727-1.78328177.3540964-2.46927655.4300098-2.72112956.028967-.09647595-.0064926-.17974993-.0744152-.20463057-.0943923-.035036-.1553229.03097386-.1862876.08581282-.1218611.21326263-.1852888.43769615-.518409.3173551-.2671954-.09749149-.3550952-1.04803348-.4569791-1.3379691-.0374573-.10764685-.1018838-.15690036-.1847893-.13811294-.0839044.01929519-.1323491.09241381-.1153685.19447521.0459476.26353167.4549813 1.80156142.4549813 3.90067499 0 8.74935318-2.6419882 11.62078208-2.6419882 16.80814158m1.7380187-18.75086255c-.0744151-2.37483168-.2252432-4.4333238-.2572068-4.8639112-.0124857-.18025769-.1678087-.25134523-.2691931-.24525201-.104381.00609322-.2457199.08987496-.2362307.26251614.0644266 1.53904528.2067643 3.87223997.1578201 6.06275181-.0309647 1.36843518-.2147552 2.57793894-.3770702 3.26850363-1.3120043 5.57580218-6.90912376 7.79017908-7.13836243 13.74528408-.10338215 2.69828.38256389 6.9990763 5.96220323 10.9215853.1907825.1345585.4909404.2548996.6882155.0614399.1313502-.1289731.215754-.3442668-.0644266-.7540357-1.8453963-2.6992955-3.8131531-5.4864349-3.8131531-9.5435025 0-3.773733 1.4703239-5.9627215 2.8867092-8.3086104 1.1956371-1.9808036 2.5710691-4.1510047 2.4931579-8.61631787-.0114869-.67330058-.0109875-1.2932855-.032463-1.99045118M15.6727367 34.3724194c.34061171-6.1439947 8.1996526-11.0454808 9.879238-14.43432544.5618595-1.13283076.7426534-1.74215255.7426534-3.61226268 0-.88250106-.1593184-2.85010267-.1703059-3.00497196-.0144835-.20158396-.1463332-.26353167-.2602034-.25591515-.1158679.00761652-.2512136.08175067-.2417244.27470257.0094892.19396744.1248576 1.97724921.1208622 3.20706369-.0049943 1.44612372-.3940508 2.05544551-.4734603 2.2692159-1.6551132 4.47191417-12.34242996 6.83455937-12.34242996 15.74842947 0 7.168163 5.82036495 10.9063522 10.53299266 12.1585085.198274.0523001.400044.0116787.4774557-.1680713.079909-.1822887-.0169806-.3960591-.1917813-.4757787-5.39435062-2.8480716-8.34898243-6.7436689-8.0732967-11.7065949M27.7839303 50c.2357313 0 .3980462-.194983.3980462-.433634l.0284676-2.4921261c0-.2381433-.1907825-.4326185-.4265138-.4326185-.2352319 0-.4265138.1944752-.4265138.4326185l.0284676 2.4921261c0 .238651.1628143.433634.3980462.433634"/>
    </g>
</svg>
