<svg xmlns="http://www.w3.org/2000/svg" fill-rule="evenodd" stroke-linejoin="round" stroke-miterlimit="1.414" clip-rule="evenodd" viewBox="0 0 139 136"><path fill="#6d9bd2" fill-rule="nonzero" d="M62.372 43.839a2.192 2.192 0 1 1-4.384 0 2.192 2.192 0 0 1 4.384 0m11.265 0a2.192 2.192 0 1 1-4.384 0 2.192 2.192 0 0 1 4.384 0m11.265 0a2.191 2.191 0 1 1-4.383.001 2.191 2.191 0 0 1 4.383-.001"/><path d="M32.055 21.233c4.149.037 7.953 3.477 7.96 7.909.005 3.376-2.266 6.629-5.567 7.632-3.583 1.088-7.85-.464-9.597-3.798-2.45-4.678.705-11.647 7.039-11.742l.165-.001zm-.13 3.02c-1.436.013-2.838.701-3.68 1.864-1.779 2.46-.879 6.616 2.134 7.717 1.884.689 4.189.041 5.367-1.629 1.992-2.825.435-7.833-3.66-7.951l-.161-.001zm14.354 12.63h-3.231V21.486c2.074 0 4.148-.009 6.222 0 3.247.044 6.448 2.495 5.753 6.346a4.939 4.939 0 0 1-1.928 3.084c-1.206.879-2.732 1.217-4.204 1.223h-2.612zm0-12.398v4.676c1.783 0 3.744.382 4.927-.764.898-.87.855-2.585-.156-3.348-.577-.436-1.332-.556-2.032-.564-.913-.003-1.826 0-2.739 0zm24.659 5.743c-.017 2.388-.824 4.941-3.241 6.155-1.139.573-2.437.762-3.702.728-2.251-.062-4.577-1.039-5.644-3.343-.493-1.064-.673-2.251-.681-3.415v-8.867h3.231c0 2.924-.012 5.848 0 8.772.004.312.01.361.024.53.097 1.128.541 2.313 1.609 2.898 1.464.802 3.558.587 4.537-.871.492-.734.631-1.647.635-2.514v-8.815h3.232c0 2.914.006 5.828 0 8.742zm8.223-8.952c1.967.014 3.901.658 5.466 1.896l.271.216-1.754 2.473-.323-.24c-1.325-.967-2.944-1.729-4.579-1.313-.741.188-1.559.812-1.191 1.873.382 1.101 2.289 1.271 3.623 1.624 1.848.497 3.786 1.373 4.352 3.136.627 1.957-.199 4.312-2.049 5.361-2.997 1.7-7.102.64-9.668-1.613l-.274-.243 1.967-2.339.31.266c1.441 1.223 3.253 2.085 5.162 1.716.076-.015.151-.032.226-.052.693-.188 1.363-.697 1.288-1.624-.147-1.841-4.058-1.917-5.503-2.537-1.704-.73-2.941-2.441-2.705-4.531a4.355 4.355 0 0 1 1.504-2.803c1.063-.897 2.496-1.27 3.877-1.266z"/><path fill="#6d9bd2" d="M95.222 36.989h-2.705l-6.398-15.503h3.561l4.23 10.788 4.212-10.788h3.498zm11.893-3.105h7.759v2.998h-10.99V21.486h3.231z"/><g fill-rule="nonzero"><path d="M36.724 63.116h1.828v-8.479h-1.263l-2.417.721.385 1.516 1.467-.361z"/><path d="M38.569 54.538c.072.019.077.032.083.099v8.479c-.007.081-.026.093-.1.1h-1.828c-.081-.007-.094-.026-.1-.1v-6.475l-1.361.333c-.074-.002-.082-.013-.104-.076l-.384-1.515c-.013-.078 0-.094.068-.121l2.417-.721.029-.004h1.263l.017.001zm-1.265.199l-2.311.69.336 1.326 1.389-.34c.084.003.099.023.106.1v6.502h1.628v-8.278h-1.148zm6.034 6.839c-.709 0-1.226-.228-1.84-.721l-.974 1.407c.71.589 1.54.998 2.766.998 2.394 0 3.68-1.864 3.68-4.594v-.024c0-1.66-.396-2.574-.998-3.175-.637-.638-1.299-.914-2.429-.914-1.9 0-3.211 1.25-3.211 2.946v.024c0 1.708 1.178 2.718 3.006 2.718.722 0 1.275-.216 1.708-.577-.072.722-.433 1.912-1.708 1.912zm.301-2.874c-.914 0-1.467-.517-1.467-1.263v-.024c0-.746.517-1.275 1.431-1.275.926 0 1.479.541 1.479 1.287v.024c0 .722-.529 1.251-1.443 1.251z"/><path d="M43.57 54.452c1.146.007 2.34.46 2.977 1.615.738 1.337.663 3.042.311 4.388-.288 1.099-.978 2.15-2.052 2.612-1.383.595-3.076.303-4.295-.686-.074-.06-.117-.092-.069-.176l.974-1.407c.114-.136.221.043.367.148.641.461 1.513.748 2.243.377.498-.254.776-.829.883-1.407 0 0 .06-.062-.042.005-.535.345-1.198.451-1.829.411-1.119-.07-2.304-.675-2.671-1.861-.424-1.373.201-3 1.51-3.65a3.797 3.797 0 0 1 1.693-.369zm-.049.201c-1.493.011-2.994 1.034-3.084 2.674-.051.928.297 1.888 1.154 2.393 1.058.624 2.499.603 3.391-.133 0 0 .185-.085.156.158-.093.748-.433 1.523-1.137 1.809-.803.327-1.765-.004-2.478-.553l-.864 1.242.078.061c1.437 1.106 3.729 1.329 5.08-.218 1.131-1.295 1.188-3.296.965-4.661-.178-1.089-.769-2.201-2-2.605-.406-.133-.838-.168-1.261-.167zm.105 1.387c.775.011 1.555.546 1.557 1.387.001.478-.233.945-.682 1.182-.767.405-1.906.245-2.299-.572-.268-.556-.137-1.295.352-1.679.287-.225.659-.313 1.027-.318zm-.043.2c-.539.008-1.111.266-1.265.822-.137.495.031 1.067.478 1.334.887.53 2.395.047 2.165-1.204-.107-.586-.735-.955-1.378-.952zm7.717 5.336c-.71 0-1.227-.228-1.84-.721l-.974 1.407c.709.589 1.539.998 2.766.998 2.393 0 3.68-1.864 3.68-4.594v-.024c0-1.66-.397-2.574-.998-3.175-.638-.638-1.299-.914-2.429-.914-1.901 0-3.212 1.25-3.212 2.946v.024c0 1.708 1.179 2.718 3.007 2.718.722 0 1.275-.216 1.708-.577-.072.722-.433 1.912-1.708 1.912zm.301-2.874c-.914 0-1.468-.517-1.468-1.263v-.024c0-.746.518-1.275 1.432-1.275.926 0 1.479.541 1.479 1.287v.024c0 .722-.529 1.251-1.443 1.251z"/><path d="M51.531 54.452c1.16.007 2.358.471 2.989 1.635.716 1.322.619 2.992.34 4.204-.28 1.211-1.029 2.388-2.253 2.841-1.394.515-3.041.139-4.151-.765 0 0-.107-.065-.053-.162l.975-1.407c.113-.136.221.043.367.148.64.461 1.512.748 2.243.377.498-.254.776-.829.883-1.407 0 0 .059-.062-.043.005-.534.345-1.197.451-1.828.411-1.13-.07-2.317-.688-2.677-1.878-.414-1.371.208-2.984 1.516-3.633a3.795 3.795 0 0 1 1.692-.369zm-.048.201c-1.493.011-2.995 1.04-3.085 2.674-.051.931.307 1.901 1.168 2.401 1.059.615 2.485.595 3.378-.141 0 0 .187-.107.156.158-.093.748-.433 1.523-1.137 1.809-.803.327-1.757.003-2.479-.553l-.863 1.242.078.061c1.439 1.109 3.728 1.329 5.08-.218 1.133-1.297 1.187-3.296.964-4.661-.178-1.093-.785-2.206-1.999-2.605-.406-.133-.838-.168-1.261-.167zm.104 1.387c.871.012 1.755.679 1.524 1.725a1.274 1.274 0 0 1-.648.844c-.767.405-1.906.246-2.3-.572-.267-.556-.136-1.295.353-1.679.287-.225.658-.313 1.026-.318zm-.043.2c-.531.008-1.093.257-1.256.794-.148.486.006 1.062.431 1.338.294.191.659.245 1.002.226.66-.036 1.35-.534 1.204-1.391-.099-.582-.706-.958-1.34-.967h-.041zm7.718 5.336c-.71 0-1.227-.228-1.84-.721l-.975 1.407c.71.589 1.54.998 2.767.998 2.393 0 3.68-1.864 3.68-4.594v-.024c0-1.66-.397-2.574-.999-3.175-.637-.638-1.298-.914-2.429-.914-1.9 0-3.211 1.25-3.211 2.946v.024c0 1.708 1.179 2.718 3.007 2.718.721 0 1.274-.216 1.707-.577-.072.722-.433 1.912-1.707 1.912zm.3-2.874c-.914 0-1.467-.517-1.467-1.263v-.024c0-.746.517-1.275 1.431-1.275.926 0 1.48.541 1.48 1.287v.024c0 .722-.53 1.251-1.444 1.251z"/><path d="M59.493 54.452c1.151.007 2.345.467 2.978 1.615.712 1.293.641 2.963.35 4.224-.273 1.188-.99 2.342-2.183 2.814-1.405.555-3.085.188-4.221-.738 0 0-.107-.065-.052-.162l.974-1.407c.119-.143.235.055.394.167.742.526 1.849.807 2.548.117.31-.306.476-.745.555-1.184 0 0-.311.198-.635.303-.397.13-.821.157-1.24.131-1.121-.07-2.304-.674-2.671-1.861-.426-1.378.204-3.011 1.528-3.658a3.823 3.823 0 0 1 1.675-.361zm-.049.201c-1.483.011-2.973 1.018-3.082 2.637-.063.937.282 1.917 1.152 2.43 1.059.624 2.499.603 3.392-.133 0 0 .187-.107.155.158-.092.746-.429 1.522-1.137 1.809-.814.331-1.783-.018-2.478-.553l-.863 1.242.077.061c1.438 1.107 3.73 1.349 5.095-.235 1.124-1.304 1.177-3.296.945-4.673-.184-1.093-.816-2.189-1.995-2.576-.405-.133-.836-.168-1.261-.167zm.105 1.387c.777.011 1.555.538 1.557 1.387.001.478-.233.945-.682 1.182-.766.405-1.906.246-2.299-.572-.267-.555-.137-1.295.353-1.679.286-.225.658-.313 1.026-.318zm-.043.2c-.539.008-1.113.272-1.265.823-.127.461.002.993.391 1.276.261.19.591.26.91.263.728.006 1.52-.508 1.34-1.425-.114-.579-.733-.94-1.376-.937zm8.246 1.788h3.704v1.756h-3.704z"/><path d="M71.469 57.929c.049.009.084.032.088.099v1.756a.105.105 0 0 1-.1.1h-3.705a.106.106 0 0 1-.1-.1v-1.756a.105.105 0 0 1 .1-.1h3.705l.012.001zm-3.616.2v1.555h3.503v-1.555h-3.503zm8.402 4.987h6.23v-1.6h-3.668l1.371-1.058c1.491-1.155 2.213-1.852 2.213-3.26v-.024c0-1.575-1.155-2.597-2.899-2.597-1.503 0-2.309.613-3.139 1.744l1.299 1.046c.626-.77 1.071-1.131 1.72-1.131.662 0 1.131.385 1.131 1.095 0 .697-.409 1.154-1.456 2.02l-2.802 2.297z"/><path d="M79.523 54.477c1.02.007 2.082.395 2.619 1.305.559.945.471 2.235-.156 3.129-.454.646-1.101 1.133-1.737 1.626l-1.138.879 3.391.001c.073.02.077.033.083.099v1.6c-.007.081-.026.093-.1.1h-6.23c-.081-.007-.093-.026-.1-.1v-1.468a.12.12 0 0 1 .037-.077l2.802-2.297c.652-.541 1.396-1.104 1.418-1.897.009-.348-.115-.709-.432-.895-.661-.387-1.523.121-2.015.681-.1.114-.237.28-.237.28-.06.043-.073.039-.129.002l-1.298-1.046c-.1-.096-.005-.156.041-.217.528-.703 1.207-1.341 2.071-1.574.36-.097.736-.132 1.11-.131zm-.055.2c-.702.007-1.407.176-1.976.593-.386.284-.705.652-.99 1.032l1.146.924.053-.063c.434-.514.951-1.014 1.649-1.027.463-.008.964.203 1.161.66.146.339.136.742.005 1.087-.254.668-.86 1.103-1.395 1.546l-2.766 2.267v1.319h6.03v-1.399h-3.568c-.086-.007-.134-.112-.061-.179l1.371-1.059c1.031-.8 2.126-1.671 2.172-3.053.03-.923-.38-1.853-1.261-2.308-.48-.248-1.02-.342-1.57-.34zm8.068 8.583c2.249 0 3.752-1.912 3.752-4.354v-.024c0-2.441-1.503-4.329-3.728-4.329-2.237 0-3.752 1.912-3.752 4.353v.024c0 2.442 1.479 4.33 3.728 4.33zm.024-1.672c-1.118 0-1.852-1.142-1.852-2.682v-.024c0-1.539.722-2.658 1.828-2.658 1.107 0 1.852 1.155 1.852 2.682v.024c0 1.528-.709 2.658-1.828 2.658z"/><path d="M87.587 54.453a3.702 3.702 0 0 1 2.958 1.557c.776 1.104.991 2.558.76 3.882-.253 1.444-1.196 2.835-2.625 3.294-1.498.48-3.271-.094-4.179-1.445-.725-1.079-.925-2.473-.723-3.739.291-1.812 1.704-3.515 3.729-3.549h.08zm-.052.2a3.502 3.502 0 0 0-2.8 1.467c-1.567 2.201-.932 5.951 1.632 6.847a3.533 3.533 0 0 0 4.092-1.412c1.449-2.235.825-5.851-1.783-6.725a3.581 3.581 0 0 0-1.141-.177zm.015 1.471c.907.011 1.614.913 1.825 1.787.032.13.056.262.074.395.167 1.237-.062 2.7-1.207 3.234a1.653 1.653 0 0 1-1.78-.277c-1.051-.943-1.033-2.811-.577-3.897.272-.648.836-1.214 1.596-1.241l.069-.001zm-.026.201c-.675.008-1.248.57-1.491 1.21-.355.938-.316 2.055.081 2.907.374.803 1.409 1.451 2.314.751 1.1-.851 1.056-2.798.527-3.867-.26-.526-.743-.983-1.383-1.001h-.048zm6.495 6.791h1.828v-8.479h-1.263l-2.418.721.385 1.516 1.468-.361z"/><path d="M95.864 54.538c.072.019.077.032.083.099v8.479c-.007.081-.026.093-.1.1h-1.828c-.082-.007-.094-.026-.101-.1v-6.475l-1.36.333c-.074-.002-.082-.013-.104-.076l-.385-1.515c-.013-.078.001-.094.069-.121l2.417-.721c.014-.003.014-.003.029-.004h1.263l.017.001zm-1.266.199l-2.311.69.337 1.326 1.389-.34c.084.003.099.023.106.1v6.502h1.627v-8.278h-1.148zm6.035 6.839c-.709 0-1.227-.228-1.84-.721l-.974 1.407c.71.589 1.539.998 2.766.998 2.393 0 3.68-1.864 3.68-4.594v-.024c0-1.66-.397-2.574-.998-3.175-.637-.638-1.299-.914-2.429-.914-1.901 0-3.211 1.25-3.211 2.946v.024c0 1.708 1.178 2.718 3.006 2.718.722 0 1.275-.216 1.708-.577-.072.722-.433 1.912-1.708 1.912zm.301-2.874c-.914 0-1.467-.517-1.467-1.263v-.024c0-.746.517-1.275 1.431-1.275.926 0 1.479.541 1.479 1.287v.024c0 .722-.529 1.251-1.443 1.251z"/><path d="M100.864 54.452c1.159.007 2.362.479 2.989 1.635.714 1.318.619 2.992.34 4.204-.274 1.186-.99 2.342-2.184 2.814-1.414.559-3.11.167-4.22-.738 0 0-.107-.065-.052-.162l.974-1.407c.119-.143.235.055.394.167.741.526 1.849.807 2.547.117.311-.306.476-.745.555-1.184 0 0-.311.198-.634.303-.397.13-.821.157-1.24.131-1.121-.07-2.305-.674-2.671-1.861-.426-1.378.204-3.011 1.528-3.658.517-.253 1.105-.362 1.674-.361zm-.048.201c-1.484.011-2.973 1.018-3.082 2.637-.063.937.281 1.917 1.151 2.43 1.059.624 2.499.603 3.392-.133 0 0 .185-.09.156.158-.092.746-.43 1.522-1.137 1.809-.814.331-1.784-.018-2.479-.553l-.863 1.242.078.061c1.438 1.107 3.729 1.349 5.095-.235 1.102-1.28 1.179-3.24.949-4.644-.176-1.082-.755-2.196-1.999-2.605-.406-.133-.837-.168-1.261-.167zm.104 1.387c.778.011 1.555.538 1.557 1.387.001.479-.232.945-.681 1.182-.767.405-1.906.246-2.3-.572-.266-.555-.136-1.295.353-1.679.287-.225.658-.313 1.026-.318zm-.043.2c-.538.008-1.112.272-1.264.823-.128.461.002.993.39 1.276.262.19.592.26.91.263.729.006 1.52-.508 1.34-1.425-.114-.579-.733-.94-1.376-.937zM.094 120.147h5.979v-1.658H4.361c-.401 0-.99.053-1.418.107 1.378-1.445 2.716-2.97 2.716-4.401 0-1.632-1.138-2.703-2.81-2.703-1.217 0-2.006.455-2.849 1.351l1.07 1.057c.428-.455.896-.869 1.512-.869.736 0 1.204.455 1.204 1.284 0 1.204-1.525 2.662-3.692 4.709v1.123zm10.099.161c1.82 0 3.037-1.552 3.037-4.441 0-2.89-1.217-4.375-3.037-4.375-1.819 0-3.036 1.485-3.036 4.375 0 2.889 1.217 4.441 3.036 4.441zm0-1.525c-.655 0-1.177-.602-1.177-2.916 0-2.328.522-2.85 1.177-2.85.669 0 1.178.522 1.178 2.85 0 2.314-.509 2.916-1.178 2.916zm7.331 2.328l-.348 1.498c.268.08.535.134.937.134 1.565 0 2.274-.857 2.902-2.529l2.301-6.702H21.43l-.802 2.85c-.161.628-.308 1.257-.455 1.886h-.054c-.174-.656-.334-1.284-.521-1.886l-.95-2.85h-1.98l2.555 6.461-.094.348c-.174.522-.508.87-1.163.87-.148 0-.322-.054-.442-.08zm6.327-4.281c0 2.194 1.459 3.478 3.358 3.478.789 0 1.672-.281 2.354-.749l-.655-1.191c-.482.295-.936.442-1.431.442-.883 0-1.552-.442-1.726-1.445h3.973c.04-.161.08-.482.08-.829 0-1.806-.936-3.184-2.822-3.184-1.592 0-3.131 1.324-3.131 3.478zm1.887-.682c.133-.883.668-1.298 1.284-1.298.789 0 1.11.535 1.11 1.298zm5.043 2.153c0 1.124.762 2.007 1.966 2.007.749 0 1.378-.348 1.94-.843h.04l.147.682h1.605v-3.799c0-2.033-.936-2.996-2.635-2.996-1.043 0-1.993.361-2.836.869l.696 1.298c.642-.375 1.204-.602 1.766-.602.709 0 1.003.374 1.043.963-2.622.268-3.732 1.03-3.732 2.421zm1.873-.147c0-.508.454-.909 1.859-1.097v1.164c-.348.348-.642.562-1.097.562-.468 0-.762-.201-.762-.629zm5.511 1.993h1.966v-3.852c.348-.896.964-1.218 1.459-1.218.28 0 .481.041.722.107l.321-1.698c-.187-.081-.415-.134-.789-.134-.683 0-1.405.428-1.886 1.324h-.054l-.134-1.164h-1.605zm4.602-.762c.669.548 1.672.923 2.541.923 1.78 0 2.729-.936 2.729-2.14 0-1.218-.949-1.686-1.792-1.994-.682-.254-1.298-.414-1.298-.842 0-.335.241-.522.749-.522.469 0 .923.214 1.405.562l.883-1.177c-.575-.429-1.325-.843-2.341-.843-1.539 0-2.542.843-2.542 2.073 0 1.097.95 1.646 1.753 1.953.682.268 1.351.469 1.351.91 0 .348-.255.562-.843.562-.562 0-1.11-.241-1.712-.696zm8.909-2.555c0 2.207 1.552 3.478 3.237 3.478 1.672 0 3.224-1.271 3.224-3.478s-1.552-3.478-3.224-3.478c-1.685 0-3.237 1.271-3.237 3.478zm2.02 0c0-1.151.401-1.886 1.217-1.886.803 0 1.217.735 1.217 1.886 0 1.15-.414 1.886-1.217 1.886-.816 0-1.217-.736-1.217-1.886zm9.832-5.98a3.967 3.967 0 0 0-1.324-.241c-1.793 0-2.448 1.151-2.448 2.556v.361l-.883.067v1.458h.883v5.096h1.966v-5.096h1.191v-1.539h-1.191v-.401c0-.682.281-.95.763-.95.214 0 .454.054.682.134zm5.137 8.762c.468.442 1.003.696 1.578.696 1.432 0 2.796-1.311 2.796-3.585 0-2.047-.99-3.371-2.595-3.371-.696 0-1.364.348-1.886.816h-.054l-.133-.656h-1.606v9.097h1.967v-1.94zm.067-1.337v-2.716c.388-.415.736-.602 1.137-.602.789 0 1.15.602 1.15 1.793 0 1.364-.548 1.953-1.23 1.953-.335 0-.709-.107-1.057-.428zm5.698 1.872h1.967v-3.852c.348-.896.963-1.218 1.458-1.218.281 0 .482.041.722.107l.321-1.698c-.187-.081-.414-.134-.789-.134-.682 0-1.404.428-1.886 1.324h-.054l-.133-1.164H74.43zm4.803-3.317c0 2.207 1.552 3.478 3.237 3.478 1.672 0 3.224-1.271 3.224-3.478s-1.552-3.478-3.224-3.478c-1.685 0-3.237 1.271-3.237 3.478zm2.02 0c0-1.151.401-1.886 1.217-1.886.803 0 1.217.735 1.217 1.886 0 1.15-.414 1.886-1.217 1.886-.816 0-1.217-.736-1.217-1.886zm9.832-5.98a3.967 3.967 0 0 0-1.324-.241c-1.793 0-2.448 1.151-2.448 2.556v.361l-.883.067v1.458h.883v5.096h1.966v-5.096h1.191v-1.539h-1.191v-.401c0-.682.281-.95.763-.95.214 0 .454.054.682.134zm-.067 5.98c0 2.194 1.458 3.478 3.358 3.478.789 0 1.672-.281 2.354-.749l-.655-1.191c-.482.295-.937.442-1.432.442-.883 0-1.551-.442-1.725-1.445h3.973c.04-.161.08-.482.08-.829 0-1.806-.936-3.184-2.823-3.184-1.592 0-3.13 1.324-3.13 3.478zm1.886-.682c.134-.883.669-1.298 1.284-1.298.79 0 1.111.535 1.111 1.298zm4.843 3.237c.669.548 1.672.923 2.541.923 1.78 0 2.729-.936 2.729-2.14 0-1.218-.949-1.686-1.792-1.994-.682-.254-1.298-.414-1.298-.842 0-.335.241-.522.749-.522.469 0 .923.214 1.405.562l.883-1.177c-.575-.429-1.324-.843-2.341-.843-1.538 0-2.542.843-2.542 2.073 0 1.097.95 1.646 1.753 1.953.682.268 1.351.469 1.351.91 0 .348-.254.562-.843.562-.562 0-1.11-.241-1.712-.696zm5.926 0c.669.548 1.672.923 2.542.923 1.779 0 2.728-.936 2.728-2.14 0-1.218-.949-1.686-1.792-1.994-.682-.254-1.298-.414-1.298-.842 0-.335.241-.522.749-.522.469 0 .923.214 1.405.562l.883-1.177c-.575-.429-1.324-.843-2.341-.843-1.538 0-2.542.843-2.542 2.073 0 1.097.95 1.646 1.753 1.953.682.268 1.351.469 1.351.91 0 .348-.254.562-.843.562-.562 0-1.11-.241-1.712-.696zm7.491-6.849c.669 0 1.137-.428 1.137-1.03s-.468-1.017-1.137-1.017c-.655 0-1.137.415-1.137 1.017s.482 1.03 1.137 1.03zm-.976 7.611h1.966v-6.635h-1.966zm3.304-3.317c0 2.207 1.551 3.478 3.237 3.478 1.672 0 3.224-1.271 3.224-3.478s-1.552-3.478-3.224-3.478c-1.686 0-3.237 1.271-3.237 3.478zm2.02 0c0-1.151.401-1.886 1.217-1.886.803 0 1.217.735 1.217 1.886 0 1.15-.414 1.886-1.217 1.886-.816 0-1.217-.736-1.217-1.886zm5.792 3.317h1.966v-4.481c.428-.415.736-.642 1.231-.642.562 0 .816.294.816 1.257v3.866h1.967v-4.12c0-1.659-.616-2.675-2.061-2.675-.896 0-1.565.468-2.127 1.003h-.053l-.134-.843h-1.605zm7.411-1.846c0 1.124.762 2.007 1.966 2.007.749 0 1.378-.348 1.94-.843h.04l.147.682h1.606v-3.799c0-2.033-.937-2.996-2.636-2.996-1.043 0-1.993.361-2.836.869l.696 1.298c.642-.375 1.204-.602 1.766-.602.709 0 1.003.374 1.043.963-2.622.268-3.732 1.03-3.732 2.421zm1.873-.147c0-.508.455-.909 1.859-1.097v1.164c-.348.348-.642.562-1.097.562-.468 0-.762-.201-.762-.629zm5.511-.067c0 1.338.455 2.221 1.806 2.221.441 0 .776-.067.99-.161l-.241-1.458c-.107.027-.16.027-.241.027-.16 0-.347-.134-.347-.548v-7.398h-1.967zM34.112 129.939c0 2.208 1.551 3.479 3.237 3.479 1.672 0 3.224-1.271 3.224-3.479 0-2.207-1.552-3.478-3.224-3.478-1.686 0-3.237 1.271-3.237 3.478zm2.02 0c0-1.15.401-1.886 1.217-1.886.803 0 1.217.736 1.217 1.886 0 1.151-.414 1.887-1.217 1.887-.816 0-1.217-.736-1.217-1.887zm7.692 2.783c.468.441 1.003.696 1.578.696 1.431 0 2.796-1.311 2.796-3.586 0-2.046-.99-3.371-2.595-3.371-.696 0-1.365.348-1.886.816h-.054l-.134-.655h-1.605v9.096h1.966v-1.939zm.066-1.338v-2.715c.388-.415.736-.602 1.137-.602.79 0 1.151.602 1.151 1.792 0 1.365-.549 1.953-1.231 1.953-.334 0-.709-.107-1.057-.428zm5.311-1.445c0 2.194 1.458 3.479 3.358 3.479.789 0 1.672-.281 2.354-.75l-.655-1.19c-.482.294-.937.441-1.432.441-.883 0-1.551-.441-1.725-1.444h3.973c.04-.161.08-.482.08-.83 0-1.806-.936-3.184-2.823-3.184-1.591 0-3.13 1.325-3.13 3.478zm1.886-.682c.134-.883.669-1.297 1.285-1.297.789 0 1.11.535 1.11 1.297zm5.431 4h1.967v-4.481c.428-.415.736-.642 1.231-.642.561 0 .816.294.816 1.257v3.866h1.966v-4.12c0-1.659-.615-2.676-2.06-2.676-.896 0-1.565.469-2.127 1.004h-.054l-.133-.843h-1.606zm9.846-.763c.669.549 1.672.924 2.542.924 1.779 0 2.729-.937 2.729-2.141 0-1.217-.95-1.685-1.793-1.993-.682-.254-1.298-.415-1.298-.843 0-.334.241-.521.75-.521.468 0 .923.214 1.404.561l.883-1.177c-.575-.428-1.324-.843-2.341-.843-1.538 0-2.542.843-2.542 2.074 0 1.097.95 1.645 1.753 1.953.682.267 1.351.468 1.351.91 0 .347-.254.561-.843.561-.562 0-1.11-.24-1.712-.695zm6.127-2.555c0 2.208 1.551 3.479 3.237 3.479 1.672 0 3.224-1.271 3.224-3.479 0-2.207-1.552-3.478-3.224-3.478-1.686 0-3.237 1.271-3.237 3.478zm2.02 0c0-1.15.401-1.886 1.217-1.886.803 0 1.217.736 1.217 1.886 0 1.151-.414 1.887-1.217 1.887-.816 0-1.217-.736-1.217-1.887zm5.725.803c0 1.659.615 2.676 2.06 2.676.91 0 1.525-.415 2.087-1.084h.04l.147.923h1.606v-6.635h-1.967v4.388c-.388.521-.682.735-1.177.735-.575 0-.829-.307-.829-1.257v-3.866h-1.967zm7.665 2.515h1.967v-3.853c.347-.896.963-1.217 1.458-1.217.281 0 .481.04.722.107l.321-1.699c-.187-.08-.415-.134-.789-.134-.682 0-1.405.428-1.886 1.325h-.054l-.134-1.164h-1.605zm4.803-3.318c0 2.208 1.431 3.479 3.277 3.479.722 0 1.565-.268 2.207-.83l-.789-1.244c-.321.254-.709.482-1.191.482-.856 0-1.484-.736-1.484-1.887 0-1.15.602-1.886 1.551-1.886.308 0 .602.121.923.388l.897-1.217c-.442-.455-1.124-.763-1.94-.763-1.833 0-3.451 1.271-3.451 3.478zm5.872 0c0 2.194 1.458 3.479 3.358 3.479.789 0 1.672-.281 2.354-.75l-.655-1.19c-.482.294-.937.441-1.432.441-.883 0-1.551-.441-1.725-1.444h3.973c.04-.161.08-.482.08-.83 0-1.806-.936-3.184-2.823-3.184-1.591 0-3.13 1.325-3.13 3.478zm1.886-.682c.134-.883.669-1.297 1.285-1.297.789 0 1.11.535 1.11 1.297z"/><path d="M31.652 80.079a107.645 107.645 0 0 0 10.324 5.339c9.568 4.368 19.244 7.593 26.451 11.528.448.232.88.479 1.297.726a27.083 27.083 0 0 0-7.562 6.358l.509.355a27.234 27.234 0 0 1 7.624-6.374 25.745 25.745 0 0 1 7.268 6.173l.525-.355a26.056 26.056 0 0 0-7.207-6.173 144.958 144.958 0 0 1 17.145-7.716c3.195-1.312 6.575-2.731 10.001-4.306 34.275-15.895 41.744-42.053 29.445-70.572l-.294.139c11.914 27.933 5.155 54.013-29.321 69.924a309.123 309.123 0 0 1-10 4.275 149.138 149.138 0 0 0-17.485 7.932c-.509-.308-1.034-.602-1.543-.895C61.56 92.486 51.853 89.292 42.3 84.94a103.198 103.198 0 0 1-10.278-5.293C7.346 65.048 1.682 40.757 12.531 15.155l-.324-.093C1.281 40.788 6.883 65.295 31.652 80.079z"/><path d="M59.893 91.452c.648-2.561.479-5.524-4.876-9.845a47.52 47.52 0 0 0-4.09-2.886c.386 8.873 5.278 9.969 8.966 12.731zm-12.716-5.879c1.389.987 2.716 1.728 3.272 2.083.987-5.232-3.982-9.259-8.411-12.346-.135 2.373.4 4.737 1.543 6.821a12.911 12.911 0 0 0 3.596 3.442zm-6.034-1.883c.879-4.63-2.732-8.58-7.176-12.516-1.173 6.652 2.793 9.723 7.176 12.516zm-8.92-4.63c.926-3.781-1.219-7.855-5.278-12.778-2.022 5.324.556 9.352 5.278 12.778zm-8.179-5.663c1.435-3.967-.756-9.26-2.794-13.041-2.392 3.55-2.206 8.087 2.794 13.041zm-6.96-20.093c-3.858 3.672-2.932 8.688 0 13.102 2.068-3.658 1.111-9.105 0-13.102zm-2.578-8.056c-2.731 1.759-5.061 5.895-2.5 12.84 2.624-3.241 2.948-8.982 2.5-12.84zm-1.373-5.093a25.73 25.73 0 0 0 .478-3.395c-3.086 1.296-5.833 4.908-4.629 12.161a16.47 16.47 0 0 0 4.151-8.766zm1.204-12.269c-2.979.772-6.328 3.905-6.482 11.297 4.028-3.025 6.034-8.596 6.482-11.297zm2.176-8.796c-4.862.617-6.899 5.787-7.886 10.355a19.22 19.22 0 0 0 7.886-10.355zm-5.479.833a18.817 18.817 0 0 0 8.905-9.398c-5.649 0-8.071 7.191-8.905 9.398z"/><path d="M20.741 0c-6.018 4.83-8.009 10.139-7.716 13.719C16.389 11.729 19.537 3.673 20.741 0zm37.686 93.459c-.88-.139-6.065-1.682-9.259-.926a18.159 18.159 0 0 0-6.667 3.333c1.732.471 3.496.816 5.278 1.034 6.852.756 9.197-1.343 10.648-3.441zm-19.63-5.679a21.433 21.433 0 0 0-7.068 2.608 35.392 35.392 0 0 0 5.309 1.543c2.286.463 4.642.463 6.929 0a6.869 6.869 0 0 0 4.059-2.809c-.479-.077-1.976-.525-3.75-.895a17.245 17.245 0 0 0-5.479-.447zm-17.562-4.306a29.532 29.532 0 0 0 5.124 2.33c6.558 2.207 9.521.54 11.342-1.404-.956-.232-5.879-2.3-8.95-2.3-2.56.084-5.092.547-7.516 1.374zm-9.383-8.982a25.478 25.478 0 0 0 4.537 3.426c5.803 3.395 9.26 2.439 11.497.756-4.213-1.79-5.679-4.598-16.034-4.182zm7.3-3.071c-4.553-3.241-4.291-5.509-14.368-7.994 3.164 5.093 8.627 10.371 14.368 7.994zM.926 51.236a24.077 24.077 0 0 0 2.037 4.876c3.087 5.571 6.451 6.605 9.398 6.297C8.966 58.365 10.046 56.22.926 51.236zm7.238.833C6.065 47.563 7.516 45.68 0 38.766c.432 5.71 2.299 12.238 8.164 13.303zM6.528 41.097c-.88-4.954.694-6.575-4.815-14.461-.772 5.587-.417 11.991 4.815 14.461zM7.3 30.062c.216-4.629 2.021-6.281-1.76-14.83-1.744 5.216-2.592 11.312 1.76 14.83zm3.703-25.386c-2.515 4.799-4.305 10.432-.864 14.692 1.019-4.615 3.087-5.463.864-14.692zm73.875 88.165c-1.805.309-3.333.741-3.812.818a6.995 6.995 0 0 0 3.936 3.01c2.204.577 4.499.724 6.759.432a37.97 37.97 0 0 0 5.263-1.019 18.257 18.257 0 0 0-6.667-3.364 15.312 15.312 0 0 0-5.479.123zm9.352-4.012c-1.713.324-3.194.756-3.842.895a7.159 7.159 0 0 0 4.197 2.793 22.25 22.25 0 0 0 11.899-1.358 15.1 15.1 0 0 0-12.254-2.33zm11.76-5.031a51.729 51.729 0 0 0-6.266 1.759c3.827 4.167 11.05 2.269 16.173-.355a17.795 17.795 0 0 0-9.907-1.404zm18.627-6.065c-7.115-1.667-12.84 1.543-15.865 2.979 4.337 3.441 11.451.509 15.865-2.979zm7.16-9.198c-6.728 0-12.083 4.383-14.707 6.173 4.923 2.454 11.281-1.79 14.707-6.173zm-7.654-1.157c5.262.972 10.463-4.476 12.454-9.337-6.034 1.312-10.417 7.084-12.454 9.337zm5.17-8.704c5.679-.617 8.981-7.716 9.568-11.574-5.309 2.315-8.133 8.781-9.568 11.574zm2.994-9.568c4.629-1.867 6.836-8.148 6.589-13.01-4.614 3.056-5.895 10.402-6.589 13.01zm4.598-23.596c-3.95 3.657-3.518 11.327-3.642 13.673 4.105-3.009 4.769-9.26 3.642-13.673zm-3.611-9.985c-3.086 3.889-1.543 10.664-1.018 13.75 3.256-4.012 2.778-9.969 1.018-13.75zm-4.892-9.29c-2.546 4.166.324 10.494 1.25 13.457a13.794 13.794 0 0 0-1.25-13.457zm-1.605 7.546c.602-2.608-2.16-9.722-8.055-13.441.879 2.006 3.379 9.722 8.055 13.441zM89.508 78.536c-5.062 3.287-10.386 7.129-9.013 12.716 3.704-2.793 8.596-3.858 9.013-12.716zm4.63 6.435c3.086-2.207 5.247-4.63 5.092-10.525-5.092 3.873-9.259 7.377-8.256 12.577.37-.277 1.713-1.018 3.164-2.052zm9.984-4.676c2.825-2.33 4.723-5 3.766-10.649-4.337 4.383-7.855 7.84-6.698 12.84.355-.293 1.621-1.095 2.932-2.191zm10.988-16.544c-3.703 5.741-5.741 8.905-4.274 13.272 2.407-2.515 7.33-5.463 4.274-13.272zm5 5.417c.424-.58.816-1.183 1.173-1.806 1.868-3.225 2.253-6.358-.756-10.694-2.392 6.836-3.086 9.846-1.188 13.534.123-.262.401-.617.771-1.034zm5.031-8.688c.251.376.524.737.818 1.08.17-.509 2.269-4.63 1.544-7.84a12.046 12.046 0 0 0-3.473-5.633c-.386 3.534-1.311 8.735 1.111 12.393zm4.985-8.828c0-.216.093-.648.185-1.203 0-.294.093-.618.139-.957v-1.111a10.32 10.32 0 0 0-.679-4.63 13.095 13.095 0 0 0-4.46-4.923c.679 6.065 1.235 9.908 4.815 12.824zm-5.324-22.454c.386 1.404 1.697 6.79 4.167 9.615.232.271.485.523.756.756a11.476 11.476 0 0 0 2.114 1.543c-.386-3.303.463-8.133-7.037-11.914zm-2.423-9.645c2.269 5.015 4.167 8.982 8.796 10.725-.956-3.179-.91-7.762-8.796-10.725zm6.188.231c-1.543-3.21-2.222-7.423-10.154-9.568 3.009 4.939 5.417 8.38 10.154 9.568z"/></g></svg>