<svg xmlns="http://www.w3.org/2000/svg" width="23" height="23" viewBox="0 0 23 23"><title>Download 2</title><path d="M11.107 18.93a.537.537 0 0 0 .684.153.546.546 0 0 0 .133-.097l3.611-3.613a.539.539 0 0 0-.762-.76l-2.697 2.697V.539a.539.539 0 1 0-1.076 0v16.765l-2.691-2.691a.535.535 0 0 0-.76 0 .535.535 0 0 0 0 .76l3.558 3.556zm7.664 3.825H4.312a4.154 4.154 0 0 1-4.152-4.15.539.539 0 0 1 1.076 0 3.08 3.08 0 0 0 3.076 3.074h14.459a3.076 3.076 0 0 0 3.072-3.074.538.538 0 0 1 1.076 0 4.154 4.154 0 0 1-4.148 4.15z" fill="#FFF" fill-rule="evenodd"/></svg>