<svg xmlns="http://www.w3.org/2000/svg" width="55" height="70" viewBox="0 0 55 70"><title>Group 8 Copy 2</title><g fill="none" fill-rule="evenodd"><path fill="#61C5BA" d="M0 0h55v70H0z"/><path fill="#00456E" d="M38.036 33.074l3.955-3.953a.556.556 0 0 0 .164-.469.573.573 0 0 0-.277-.418l-10.666-6.16a.56.56 0 0 0-.678.094L26.58 26.12l-3.955-3.95a.563.563 0 0 0-.68-.095l-10.664 6.16a.545.545 0 0 0-.275.418.56.56 0 0 0 .156.47l3.957 3.952-3.957 3.957a.557.557 0 0 0-.156.47.55.55 0 0 0 .275.413l4.068 2.352v5.121c0 .203.11.387.281.488l10.668 6.16a.53.53 0 0 0 .281.074.538.538 0 0 0 .281-.074l10.664-6.16a.567.567 0 0 0 .281-.488v-5.12l4.072-2.353a.577.577 0 0 0 .277-.414.553.553 0 0 0-.164-.469l-3.953-3.957zm-1.922 0l-9.535 5.508-9.539-5.508 7.152-4.129 2.387-1.375 8.625 4.977.91.527zm-5.09-9.808l9.654 5.58-3.529 3.525-.578-.334-9.078-5.24 3.531-3.53zm-8.89 0l3.53 3.531-9.658 5.574-3.53-3.525 9.657-5.58zm-6.128 10.511l9.654 5.578-3.529 3.525-5.939-3.428h-.002l-3.715-2.146 3.531-3.529zm.467 7.14l5.47 3.155a.543.543 0 0 0 .28.076c.012 0 .02-.014.033-.014a.54.54 0 0 0 .365-.148l3.395-3.395v9.984l-9.543-5.514v-4.145zm20.205 4.146l-9.537 5.508v-9.979l3.391 3.395c.1.1.23.14.363.148.012 0 .023.014.033.014a.535.535 0 0 0 .281-.076l5.47-3.156v4.146zm-5.656-2.182l-3.529-3.525 9.656-5.578 3.53 3.53-9.657 5.573z"/></g></svg>