<svg xmlns="http://www.w3.org/2000/svg" viewBox="0 0 55 70"><title>Group 8 Copy 2</title><g fill="none" fill-rule="evenodd"><path fill="#61C5BA" d="M0 0h55v70H0z"/><path fill="#00456E" d="M37.13 29.726a.538.538 0 0 0-.141-.34l-7.229-7.227a.504.504 0 0 0-.34-.141c-.018-.002-.025-.018-.039-.018H18.537a.539.539 0 0 0-.537.537v25.901a.54.54 0 0 0 .537.539h18.07a.538.538 0 0 0 .537-.539V29.766c.002-.014-.012-.024-.014-.04zm-7.211-5.888l5.391 5.391h-4.123a1.27 1.27 0 0 1-1.268-1.27v-4.121zm6.15 24.064H19.077V23.077h9.766v4.881a2.348 2.348 0 0 0 2.344 2.346h4.883v17.598h-.001z"/></g></svg>