<svg xmlns="http://www.w3.org/2000/svg" viewBox="0 0 55 70"><title>Group 8 Copy</title><g fill="none" fill-rule="evenodd"><path fill="#61C5BA" d="M0 0h55v70H0z"/><path fill="#00456E" d="M27.845 40.243a6.267 6.267 0 0 0 6.262-6.26V28.26A6.267 6.267 0 0 0 27.845 22a6.267 6.267 0 0 0-6.26 6.26v5.723a6.266 6.266 0 0 0 6.26 6.26zm-5.184-11.982a5.19 5.19 0 0 1 5.184-5.184 5.19 5.19 0 0 1 5.186 5.184v5.723a5.192 5.192 0 0 1-5.186 5.186 5.192 5.192 0 0 1-5.184-5.186v-5.723zm-8.555 19.492c.148-1.594 1.01-6.273 5.969-8.768a9.217 9.217 0 0 0 7.77 4.279 9.217 9.217 0 0 0 7.77-4.279c4.961 2.494 5.82 7.174 5.969 8.768H14.106zm21.522-9.955a.538.538 0 0 0-.693.227c-1.438 2.568-4.156 4.164-7.09 4.164s-5.652-1.596-7.09-4.164a.538.538 0 0 0-.693-.227C13.083 40.978 13 48.218 13 48.29a.536.536 0 0 0 .539.539h28.613a.537.537 0 0 0 .537-.539c-.001-.072-.085-7.312-7.061-10.492z"/></g></svg>