<svg width="55" height="70" viewBox="0 0 55 70" xmlns="http://www.w3.org/2000/svg"><title>Group 8 Copy</title><g fill="none" fill-rule="evenodd"><path fill="#61C5BA" d="M0 0h55v70H0z"/><path d="M32.604 50.344H21.717a.54.54 0 0 1-.537-.539v-4.693c-4.414-2.264-7.154-6.678-7.18-11.6-.025-4.678 2.514-9.059 6.625-11.43a.541.541 0 0 1 .807.465v8.828l5.73 3.303 5.724-3.303v-8.836a.537.537 0 1 1 .807-.467c4.117 2.377 6.596 6.598 6.63 11.291.024 4.924-2.784 9.5-7.18 11.758v4.684a.54.54 0 0 1-.539.539zm-10.348-1.076h9.811v-4.48c0-.207.117-.396.305-.486 4.197-2.018 6.896-6.309 6.873-10.932-.029-3.988-1.986-7.609-5.283-9.857v8.174a.545.545 0 0 1-.27.467l-6.262 3.613a.53.53 0 0 1-.539 0l-6.266-3.613a.544.544 0 0 1-.27-.467v-8.162c-3.299 2.26-5.3 6.004-5.279 9.984.023 4.617 2.658 8.75 6.875 10.785.188.09.305.279.305.484v4.49z" fill="#00456E"/></g></svg>