<svg xmlns="http://www.w3.org/2000/svg" viewBox="0 0 33 32"><title>ic_header_about</title><g fill="#F0F0F0" fill-rule="evenodd"><path d="M26.066 10.316c0-1.026-.823-1.86-1.843-1.86s-1.843.834-1.843 1.86c0 1.026.824 1.86 1.843 1.86s1.843-.834 1.843-1.86zM6.886 10.316c0 1.026.824 1.86 1.843 1.86 1.02 0 1.844-.834 1.844-1.86 0-1.026-.824-1.86-1.844-1.86-1.019 0-1.843.834-1.843 1.86zM10.599 22.418l-.026.103.016.105c.024.15.076.4.163.718.143.528.335 1.056.582 1.552 1.075 2.16 2.828 3.042 5.253 1.821h-.342c2.423 1.22 4.2.341 5.323-1.813a8.616 8.616 0 0 0 .615-1.55c.094-.319.15-.569.178-.719l.02-.11-.028-.107-1.833-7.188-.799.253 1.833 7.188-.008-.217c-.02.116-.07.331-.152.612a7.65 7.65 0 0 1-.545 1.374c-.924 1.775-2.267 2.439-4.262 1.434l-.171-.086-.171.086c-1.993 1.004-3.304.344-4.185-1.426a7.545 7.545 0 0 1-.514-1.373 6.336 6.336 0 0 1-.14-.611l-.008.207 1.832-7.188-.799-.253-1.832 7.188z"/><path d="M21.281 12.903c-.662-.074-1.346.334-2.1 1.103-.443.45-.903 1.022-1.376 1.689-.41.578-.805 1.195-1.174 1.812-.22.37-.384.66-.475.828l.87-.017-.139-.23a29.475 29.475 0 0 0-1.638-2.396 15.772 15.772 0 0 0-1.29-1.511c-.859-.87-1.61-1.332-2.311-1.254l.111.994c.294-.033.833.299 1.489.963.38.385.786.864 1.205 1.415.422.553.834 1.146 1.22 1.74.23.357.401.633.493.788l.45.76.42-.777c.084-.156.24-.433.454-.79a26.84 26.84 0 0 1 1.131-1.747c.444-.627.873-1.16 1.273-1.566.556-.567 1.013-.84 1.275-.81l.112-.994zM24.622 5.085c.145-.005.39-.02.7-.053.52-.055 1.041-.142 1.532-.268 1.019-.261 1.784-.656 2.195-1.257.578-.845 1.64-.704 2.01.117.583 1.3.388 4.76-.655 5.746l-.13.121a16.906 16.906 0 0 1-2.701 2.018l.496.868a16.802 16.802 0 0 0 .908-.582 17.892 17.892 0 0 0 1.974-1.569l.14-.13c1.4-1.323 1.62-5.231.88-6.881-.68-1.513-2.715-1.782-3.747-.272-.24.35-.814.646-1.62.853a9.8 9.8 0 0 1-1.386.241c-.286.03-.505.045-.626.048l.03 1z"/><path d="M16.39.601a30.158 30.158 0 0 0-1.84.514c-1.372.432-2.745.96-4.03 1.588-3.25 1.59-5.407 3.548-5.925 5.954a6.62 6.62 0 0 0-.161 1.222c-.06 1.42.278 2.92.875 4.409.191.477.396.92.602 1.315.124.24.222.413.28.51l-.07-.222.038.48a147.316 147.316 0 0 0 .513 5.097c.195 1.603.398 2.936.61 3.913.24 1.845 6.458 6.028 9.266 6.028 2.8 0 8.88-4.174 9.13-6.069.204-.936.408-2.269.603-3.872a129.665 129.665 0 0 0 .513-5.097l.038-.48-.07.221c.058-.096.156-.27.28-.509.205-.396.41-.838.602-1.315.596-1.488.934-2.989.875-4.408a6.646 6.646 0 0 0-.163-1.231c-.516-2.397-2.664-4.355-5.898-5.945a28.874 28.874 0 0 0-4.014-1.589A29.93 29.93 0 0 0 17.122.73a16.177 16.177 0 0 0-.51-.129h-.222zm.221.975h-.222c.084.02.247.06.476.12.385.103.815.227 1.277.373 1.323.418 2.644.928 3.875 1.533 2.985 1.467 4.926 3.237 5.363 5.265.08.341.125.69.14 1.054.052 1.258-.256 2.627-.804 3.995-.18.445-.37.858-.562 1.227-.113.219-.2.372-.247.45l-.063.102-.009.12-.038.474a146.408 146.408 0 0 1-.509 5.058c-.191 1.576-.391 2.882-.594 3.822-.184 1.381-5.806 5.24-8.146 5.24-2.351 0-8.107-3.873-8.282-5.2-.21-.98-.41-2.286-.602-3.861a128.616 128.616 0 0 1-.509-5.059 80.341 80.341 0 0 1-.038-.474l-.009-.12-.062-.102a8.36 8.36 0 0 1-.248-.45 13.96 13.96 0 0 1-.56-1.227c-.55-1.368-.857-2.737-.805-3.995.015-.363.06-.712.138-1.046.439-2.036 2.388-3.806 5.388-5.274A28.093 28.093 0 0 1 14.85 2.07c.465-.146.897-.27 1.283-.373.23-.06.394-.1.478-.12z"/><path d="M16.284 5.022c-2.89 0-5.08 3.61-5.08 8.012 0 3.79 1.852 6.424 5.072 8.402l.272.167.272-.167c3.132-1.924 4.93-4.588 4.93-8.41C21.75 8.655 19.454 5 16.547 5l-.306.023.042-.001zm.043.946l.264-.022c2.173.002 4.158 3.166 4.158 7.08 0 3.472-1.606 5.854-4.473 7.614h.544c-2.959-1.817-4.617-4.174-4.617-7.606 0-3.948 1.892-7.065 4.081-7.065l.043-.001zM5.342 11.429a14.754 14.754 0 0 1-2.726-1.996L2.55 9.37c-1.043-.986-1.238-4.445-.655-5.746.368-.818 1.43-.952 2.01-.104.406.593 1.145.989 2.123 1.254.48.13.988.22 1.496.278.305.035.543.052.685.057l.036-1a8.447 8.447 0 0 1-.607-.05 9.188 9.188 0 0 1-1.348-.25c-.769-.209-1.32-.503-1.56-.854-1.033-1.51-3.068-1.253-3.747.26-.74 1.65-.52 5.558.88 6.882l.073.067a15.743 15.743 0 0 0 2.938 2.148l.47-.883z"/><path d="M15.974 21.028v6.243h1v-6.243z"/></g></svg>