<svg width="55" height="70" viewBox="0 0 55 70" xmlns="http://www.w3.org/2000/svg"><title>Group 8</title><g fill="none" fill-rule="evenodd"><path fill="#61C5BA" d="M0 0h55v70H0z"/><path d="M40.258 32.322a14.932 14.932 0 0 0-2.97-4.873 14.917 14.917 0 0 0-4.581-3.396.536.536 0 0 0-.596.09L20.845 34.432l-1.301 1.188a.557.557 0 0 0-.168.223l-.018.047-3.03 7.87-1.292 3.362a.537.537 0 0 0 .649.71l3.465-.982 8.148-2.312a.56.56 0 0 0 .222-.123l1.33-1.215 11.264-10.29a.543.543 0 0 0 .144-.588zm-23.14 12.38c.022.015.048.022.069.034.23.145.445.305.623.502.178.195.318.422.44.664.015.02.02.049.03.072l-1.854.527.693-1.798zm9.77-1.17l-7.544 2.142c-.021-.047-.06-.082-.082-.127a4.015 4.015 0 0 0-.656-1.035c-.275-.301-.611-.54-.973-.748-.045-.025-.072-.066-.117-.09l2.816-7.316.844-.768.682.746 5.87 6.43-.84.767zm1.635-1.493l-1.705-1.867 8.955-8.176a.543.543 0 0 0 .033-.761.54.54 0 0 0-.76-.033l-8.955 8.176-.35-.385-1.342-1.473 8.95-8.176a.538.538 0 1 0-.726-.794l-8.953 8.178-1.701-1.865 10.594-9.678a13.795 13.795 0 0 1 3.93 2.994 13.84 13.84 0 0 1 2.625 4.184l-10.595 9.676z" fill="#00456E"/></g></svg>