<svg xmlns="http://www.w3.org/2000/svg" fill-rule="evenodd" stroke-linejoin="round" stroke-miterlimit="1.414" clip-rule="evenodd" viewBox="0 0 143 65"><path fill="#61c5ba" d="M69.685 55.8c0 .228-.046.442-.137.642-.091.2-.211.374-.36.522a1.603 1.603 0 0 1-.53.351 1.63 1.63 0 0 1-.634.129c-.228 0-.445-.04-.651-.12a1.606 1.606 0 0 1-.539-.343 1.718 1.718 0 0 1-.368-.513 1.473 1.473 0 0 1-.137-.634c0-.228.046-.442.137-.642a1.696 1.696 0 0 1 .907-.873 1.672 1.672 0 0 1 1.285 0 1.635 1.635 0 0 1 .89.856c.091.2.137.408.137.625zm0 5.496c0 .228-.046.442-.137.642-.091.2-.211.371-.36.514a1.697 1.697 0 0 1-.53.342 1.63 1.63 0 0 1-.634.129c-.228 0-.445-.04-.651-.12a1.606 1.606 0 0 1-.539-.343 1.718 1.718 0 0 1-.368-.513 1.473 1.473 0 0 1-.137-.634c0-.228.046-.442.137-.642a1.684 1.684 0 0 1 .907-.873 1.672 1.672 0 0 1 1.285 0c.205.086.382.2.53.342.149.143.269.314.36.514.091.2.137.414.137.642zm6.521-5.496c0 .228-.046.442-.137.642-.092.2-.212.374-.36.522a1.598 1.598 0 0 1-.531.351 1.621 1.621 0 0 1-.633.129c-.229 0-.445-.04-.651-.12a1.606 1.606 0 0 1-.539-.343 1.718 1.718 0 0 1-.368-.513 1.459 1.459 0 0 1-.137-.634c0-.228.045-.442.137-.642a1.696 1.696 0 0 1 .907-.873 1.669 1.669 0 0 1 1.284 0c.206.086.383.2.531.343.148.142.268.313.36.513.091.2.137.408.137.625zm0 5.496c0 .228-.046.442-.137.642-.092.2-.212.371-.36.514a1.69 1.69 0 0 1-.531.342 1.621 1.621 0 0 1-.633.129c-.229 0-.445-.04-.651-.12a1.606 1.606 0 0 1-.539-.343 1.718 1.718 0 0 1-.368-.513 1.459 1.459 0 0 1-.137-.634c0-.228.045-.442.137-.642a1.684 1.684 0 0 1 .907-.873 1.669 1.669 0 0 1 1.284 0c.206.086.383.2.531.342.148.143.268.314.36.514.091.2.137.414.137.642z"/><path fill="#f8fafc" d="M89.148 26.505c0 1.746-.326 3.217-.977 4.414a8 8 0 0 1-2.635 2.894c-1.105.732-2.379 1.267-3.824 1.605a19.72 19.72 0 0 1-4.505.507h-3.612v11.28h-7.266v-29.91h11.048c1.643 0 3.18.162 4.611.486 1.431.324 2.677.845 3.739 1.563a7.596 7.596 0 0 1 2.508 2.83c.609 1.169.913 2.613.913 4.331zm-7.266.042c0-.704-.142-1.282-.425-1.732a2.951 2.951 0 0 0-1.148-1.056 4.915 4.915 0 0 0-1.636-.507 13.668 13.668 0 0 0-1.891-.127h-3.187v7.055h3.06c.68 0 1.331-.056 1.955-.169a5.292 5.292 0 0 0 1.678-.591 3.185 3.185 0 0 0 1.169-1.12c.283-.465.425-1.049.425-1.753zm23.119 7.731c0-1.099-.347-2.042-1.041-2.831-.695-.788-1.736-1.183-3.124-1.183-.68 0-1.303.106-1.869.317-.567.212-1.063.5-1.488.866a4.286 4.286 0 0 0-1.02 1.289 3.766 3.766 0 0 0-.425 1.542h8.967zm6.416 2.661v.845c0 .282-.014.549-.042.803H96.034c.057.591.234 1.126.532 1.605.297.479.68.894 1.147 1.246a5.53 5.53 0 0 0 1.572.824 5.586 5.586 0 0 0 1.806.296c1.105 0 2.04-.204 2.805-.613a5.536 5.536 0 0 0 1.87-1.584l4.844 3.042c-.992 1.436-2.302 2.542-3.931 3.316-1.629.775-3.52 1.162-5.673 1.162-1.586 0-3.088-.246-4.504-.739-1.417-.493-2.656-1.211-3.718-2.155-1.063-.943-1.898-2.105-2.507-3.485-.61-1.38-.914-2.957-.914-4.732 0-1.718.297-3.274.892-4.668.595-1.394 1.403-2.577 2.422-3.549 1.02-.971 2.224-1.725 3.612-2.26 1.389-.535 2.89-.802 4.505-.802 1.558 0 2.988.26 4.292.781a9.356 9.356 0 0 1 3.357 2.26c.934.986 1.664 2.183 2.188 3.591.524 1.408.786 3.014.786 4.816zm18.247-5.111a5.38 5.38 0 0 0-.913-.169 8.99 8.99 0 0 0-.872-.043c-.934 0-1.721.169-2.358.507-.637.338-1.147.747-1.53 1.225-.382.479-.658 1-.828 1.563-.17.564-.255 1.057-.255 1.479v10.815h-6.969V26.167h6.714v3.041h.085a6.843 6.843 0 0 1 2.294-2.619c.992-.676 2.139-1.014 3.442-1.014a8 8 0 0 1 .829.042c.269.029.489.071.659.127l-.298 6.084zm4.934 15.377v-29.91h7.054v29.91h-7.054z"/><path fill="#61c5ba" d="M89.214 58.534c0 .752-.139 1.4-.418 1.946a3.93 3.93 0 0 1-1.103 1.346c-.457.351-.972.61-1.546.775a6.243 6.243 0 0 1-1.745.249h-3.201v-8.583h3.104c.606 0 1.204.071 1.794.212.59.141 1.115.376 1.576.703.46.327.832.766 1.115 1.315.283.55.424 1.229.424 2.037zm-2.157 0c0-.485-.079-.887-.237-1.206a2.034 2.034 0 0 0-.63-.764 2.529 2.529 0 0 0-.897-.406 4.405 4.405 0 0 0-1.037-.121h-1.03v5.019h.982a4.46 4.46 0 0 0 1.073-.128c.343-.084.646-.224.909-.418.262-.194.473-.452.63-.776.158-.323.237-.723.237-1.2zm14.292-.012c0 .679-.117 1.299-.351 1.861a4.243 4.243 0 0 1-.976 1.443c-.416.4-.911.709-1.485.927-.574.218-1.196.327-1.867.327s-1.291-.109-1.861-.327a4.347 4.347 0 0 1-1.479-.927 4.257 4.257 0 0 1-.976-1.443 4.794 4.794 0 0 1-.351-1.861c0-.687.117-1.307.351-1.861.235-.553.56-1.024.976-1.412a4.34 4.34 0 0 1 1.479-.897c.57-.21 1.19-.315 1.861-.315s1.293.105 1.867.315c.574.21 1.069.509 1.485.897.416.388.742.859.976 1.412.234.554.351 1.174.351 1.861zm-2.218 0c0-.372-.061-.719-.182-1.043a2.48 2.48 0 0 0-.503-.83 2.32 2.32 0 0 0-.776-.545c-.303-.134-.636-.201-1-.201a2.402 2.402 0 0 0-1.77.746c-.218.23-.386.507-.503.83a3.045 3.045 0 0 0-.176 1.043c0 .388.061.746.182 1.073.121.327.289.608.503.842.214.235.471.419.77.552.299.133.63.2.994.2s.695-.067.994-.2c.299-.133.558-.317.776-.552.218-.234.388-.515.509-.842a3.07 3.07 0 0 0 .182-1.073zm12.959 3.14a4.07 4.07 0 0 1-1.406 1.036c-.558.255-1.2.382-1.927.382a5.036 5.036 0 0 1-1.837-.327 4.307 4.307 0 0 1-1.461-.927 4.315 4.315 0 0 1-.97-1.437 4.718 4.718 0 0 1-.351-1.843c0-.687.119-1.309.357-1.867a4.17 4.17 0 0 1 .988-1.424 4.387 4.387 0 0 1 1.479-.903 5.221 5.221 0 0 1 1.831-.315c.606 0 1.202.107 1.788.321.586.214 1.061.527 1.425.939l-1.407 1.407a1.735 1.735 0 0 0-.763-.594 2.525 2.525 0 0 0-.97-.194c-.364 0-.697.066-1 .2a2.334 2.334 0 0 0-.782.551 2.516 2.516 0 0 0-.51.831 2.93 2.93 0 0 0-.181 1.048c0 .388.06.744.181 1.067.122.323.289.6.504.831.214.23.47.41.769.539.299.129.627.194.982.194.412 0 .772-.081 1.079-.243.307-.161.554-.371.74-.63l1.442 1.358z"/><path fill="none" d="M55 4.999v58.002A1.995 1.995 0 0 1 52.994 65H2.006A2.002 2.002 0 0 1 0 63.001V0h55v4.999z"/><path fill="#f8fafc" d="M27.149 58.538c-.338.044-.534.37-.534.716 0 1.351.956 2.578 2.056 2.853.331.083.647.058.797-.254.152-.31-.032-.655-.338-.81-.724-.364-1.124-.706-1.289-1.872-.05-.344-.353-.678-.692-.633m-5.776.633c-.165 1.166-.566 1.508-1.289 1.872-.307.155-.49.5-.339.81.151.312.467.337.797.254 1.1-.275 2.056-1.502 2.056-2.853 0-.346-.196-.672-.534-.716-.339-.045-.642.289-.691.633m18.896-19.996c0-4.741-2.779-10.573-10.523-16.948-1.361-1.121-2.403-2.469-2.754-3.999-.031-.134-.005-.339.167-.382.183-.047.321.067.412.249.935 1.853 1.607 2.452 3.055 3.548C35.289 25.168 44 30.115 44 39.819c0 7.511-6.449 13.84-9.205 15.223-.374.188-.759.259-.897.006-.14-.261.017-.537.377-.912 3.352-3.519 5.994-7.877 5.994-14.961m-18.74.163c0 4.352.298 7.759 2.518 13.94.653 1.815 1.274 1.975 1.769 2.042a8.71 8.71 0 0 1 2.558.77 8.497 8.497 0 0 1 2.307 1.563c.224.208.404.318.614.337.208.016.443-.052.773-.137 7.253-2.271 15.638-8.085 15.638-18.979 0-15.077-20.897-17.494-21.013-26.046-.037-2.797.556-3.872.675-4.267.045-.152-.011-.282-.117-.321-.148-.055-.244.048-.292.134-.191.335-.291.687-.813.498-.419-.153-.557-1.644-.717-2.098-.059-.169-.16-.246-.29-.217-.131.03-.207.145-.181.305.072.413.714 2.825.714 6.117 0 13.721-4.143 18.224-4.143 26.359m2.725-29.405a186.395 186.395 0 0 0-.403-7.628.406.406 0 0 0-.422-.385c-.164.01-.386.141-.371.412.101 2.414.325 6.073.248 9.508-.049 2.146-.337 4.042-.592 5.125-2.057 8.745-10.835 12.217-11.194 21.556-.162 4.232.6 10.976 9.35 17.127.299.211.77.4 1.079.097.206-.202.339-.54-.101-1.183-2.894-4.233-5.98-8.604-5.98-14.966 0-5.918 2.306-9.351 4.527-13.03 1.875-3.106 4.032-6.509 3.91-13.512-.018-1.056-.017-2.028-.051-3.121m-18.6 28.64c.534-9.635 12.859-17.322 15.492-22.636.882-1.777 1.165-2.732 1.165-5.665 0-1.384-.25-4.47-.267-4.713-.023-.316-.229-.413-.408-.401-.182.012-.394.128-.379.431.015.304.196 3.101.189 5.029-.007 2.268-.618 3.224-.742 3.559C18.108 21.19 1.348 24.895 1.348 38.874c0 11.241 9.128 17.103 16.518 19.067.311.082.628.018.749-.264.125-.285-.027-.621-.301-.746-8.459-4.466-13.093-10.575-12.66-18.358M24.647 63.08c.369 0 .624-.306.624-.68l.045-3.908c0-.373-.3-.678-.669-.678a.675.675 0 0 0-.669.678l.044 3.908c0 .374.256.68.625.68"/></svg>