<svg xmlns="http://www.w3.org/2000/svg" class="logo-svg" viewBox="0 0 143 65"><g fill="none" fill-rule="evenodd"><path fill="#61C5BA" d="M78.673 56.696c0 .181-.037.352-.11.511-.072.159-.168.298-.286.416-.118.118-.259.211-.422.28a1.3 1.3 0 0 1-.505.102c-.182 0-.355-.032-.518-.096a1.282 1.282 0 0 1-.43-.272 1.377 1.377 0 0 1-.293-.41 1.17 1.17 0 0 1-.109-.504c0-.182.036-.352.11-.511a1.351 1.351 0 0 1 .722-.696 1.334 1.334 0 0 1 1.023 0c.163.068.304.16.422.273.118.113.214.25.287.409.072.159.109.325.109.498zm0 4.377c0 .182-.037.352-.11.511-.072.16-.168.296-.286.41-.118.113-.259.204-.422.272a1.3 1.3 0 0 1-.505.102c-.182 0-.355-.032-.518-.095a1.282 1.282 0 0 1-.43-.273 1.377 1.377 0 0 1-.293-.409 1.17 1.17 0 0 1-.109-.505c0-.181.036-.352.11-.51a1.351 1.351 0 0 1 .722-.696 1.334 1.334 0 0 1 1.023 0c.163.068.304.159.422.272.118.114.214.25.287.41.072.159.109.329.109.51zm5.193-4.377c0 .181-.036.352-.109.511-.073.159-.168.298-.286.416-.119.118-.26.211-.423.28a1.3 1.3 0 0 1-.505.102c-.181 0-.354-.032-.518-.096a1.282 1.282 0 0 1-.43-.272 1.377 1.377 0 0 1-.293-.41 1.17 1.17 0 0 1-.109-.504c0-.182.037-.352.11-.511a1.351 1.351 0 0 1 .722-.696 1.334 1.334 0 0 1 1.023 0c.164.068.304.16.423.273.118.113.213.25.286.409.073.159.11.325.11.498zm0 4.377c0 .182-.036.352-.109.511-.073.16-.168.296-.286.41-.119.113-.26.204-.423.272a1.3 1.3 0 0 1-.505.102c-.181 0-.354-.032-.518-.095a1.282 1.282 0 0 1-.43-.273 1.377 1.377 0 0 1-.293-.409 1.17 1.17 0 0 1-.109-.505c0-.181.037-.352.11-.51a1.351 1.351 0 0 1 .722-.696 1.334 1.334 0 0 1 1.023 0c.164.068.304.159.423.272.118.114.213.25.286.41.073.159.11.329.11.51z"/><path fill="#F8FAFC" d="M96.055 31.094c0 1.535-.286 2.828-.859 3.88a7.03 7.03 0 0 1-2.315 2.543c-.971.644-2.092 1.114-3.362 1.411-1.27.297-2.589.446-3.958.446h-3.175v9.913H76V23h9.71c1.444 0 2.795.142 4.052.427 1.258.285 2.353.743 3.287 1.374a6.669 6.669 0 0 1 2.203 2.487c.535 1.028.803 2.296.803 3.806zm-6.386.037c0-.619-.125-1.126-.374-1.522a2.596 2.596 0 0 0-1.008-.928 4.344 4.344 0 0 0-1.438-.446 12.087 12.087 0 0 0-1.662-.111h-2.8v6.2h2.688c.598 0 1.17-.05 1.718-.148a4.629 4.629 0 0 0 1.475-.52 2.794 2.794 0 0 0 1.027-.984c.25-.408.374-.922.374-1.54zm20.318 6.795c0-.966-.305-1.795-.915-2.488-.61-.693-1.525-1.04-2.745-1.04a4.67 4.67 0 0 0-1.643.279c-.498.186-.934.44-1.307.761-.373.322-.672.7-.896 1.132a3.3 3.3 0 0 0-.374 1.356h7.88zm5.64 2.339v.742c0 .248-.013.483-.038.706h-13.482c.05.52.206.99.467 1.41.261.421.598.787 1.008 1.096.411.31.872.55 1.382.724.51.173 1.04.26 1.587.26.971 0 1.793-.18 2.465-.538a4.869 4.869 0 0 0 1.644-1.393l4.257 2.673c-.871 1.263-2.023 2.234-3.454 2.915-1.432.68-3.094 1.021-4.986 1.021a11.96 11.96 0 0 1-3.959-.65 9.626 9.626 0 0 1-3.268-1.893c-.933-.83-1.668-1.85-2.203-3.063-.536-1.213-.803-2.6-.803-4.159 0-1.51.261-2.877.784-4.102.523-1.226 1.233-2.265 2.129-3.12a9.498 9.498 0 0 1 3.174-1.986c1.22-.47 2.54-.705 3.959-.705 1.37 0 2.627.229 3.772.687a8.213 8.213 0 0 1 2.95 1.986c.822.867 1.463 1.918 1.924 3.156.46 1.238.69 2.649.69 4.233zm16.036-4.493a4.795 4.795 0 0 0-.803-.148 8.122 8.122 0 0 0-.765-.037c-.822 0-1.513.148-2.073.445-.56.297-1.008.656-1.344 1.077-.337.42-.58.879-.729 1.374-.149.495-.224.928-.224 1.3v9.504H119.6v-18.49h5.901v2.673h.075a6.012 6.012 0 0 1 2.017-2.302c.871-.594 1.88-.89 3.025-.89.249 0 .491.012.728.036.236.025.43.062.579.112l-.262 5.346zM136 49.287V23h6.2v26.287h-6.2z"/><path fill="#61C5BA" d="M94.227 58.873c0 .599-.111 1.115-.333 1.55a3.124 3.124 0 0 1-.879 1.071c-.364.28-.774.486-1.23.618-.458.132-.921.198-1.391.198h-2.55v-6.836h2.473c.482 0 .959.057 1.429.17.47.112.888.299 1.255.56.367.26.663.61.888 1.047.225.438.338.978.338 1.622zm-1.719 0c0-.386-.062-.706-.188-.96a1.617 1.617 0 0 0-.502-.609 2.008 2.008 0 0 0-.715-.323 3.512 3.512 0 0 0-.825-.097h-.82v3.997h.781c.296 0 .581-.033.855-.101a2.02 2.02 0 0 0 .724-.333c.21-.155.376-.36.502-.618s.188-.576.188-.956zm11.384-.01c0 .541-.094 1.035-.28 1.483-.187.447-.446.83-.778 1.148a3.458 3.458 0 0 1-1.182.74 4.15 4.15 0 0 1-1.487.26 4.11 4.11 0 0 1-1.482-.26 3.468 3.468 0 0 1-1.178-.74 3.374 3.374 0 0 1-.777-1.148 3.812 3.812 0 0 1-.28-1.483c0-.547.093-1.04.28-1.482.186-.44.445-.815.777-1.124a3.463 3.463 0 0 1 1.178-.715 4.252 4.252 0 0 1 1.482-.251c.534 0 1.03.084 1.487.251.457.167.851.406 1.182.715.332.309.591.683.778 1.124.186.441.28.935.28 1.482zm-1.767 0c0-.296-.048-.572-.145-.83a1.85 1.85 0 0 0-1.019-1.096 1.956 1.956 0 0 0-.796-.16c-.29 0-.554.054-.792.16a1.917 1.917 0 0 0-.618.435 1.88 1.88 0 0 0-.4.661c-.094.258-.14.534-.14.83 0 .31.048.594.144.855.097.26.23.484.401.671s.375.333.613.44c.238.105.502.159.792.159a1.882 1.882 0 0 0 1.41-.599c.173-.187.308-.41.405-.671.097-.26.145-.546.145-.855zm10.321 2.501a3.254 3.254 0 0 1-1.12.826c-.444.202-.956.304-1.535.304a4.005 4.005 0 0 1-1.463-.26 3.436 3.436 0 0 1-1.163-.74 3.42 3.42 0 0 1-.773-1.144 3.75 3.75 0 0 1-.28-1.467c0-.547.095-1.043.285-1.487.19-.444.452-.822.787-1.135a3.485 3.485 0 0 1 1.178-.719c.45-.167.937-.251 1.458-.251.483 0 .957.085 1.424.256.467.17.845.42 1.135.748l-1.12 1.12a1.386 1.386 0 0 0-.609-.473 2.017 2.017 0 0 0-.772-.154c-.29 0-.555.053-.797.159a1.869 1.869 0 0 0-.622.44 2.001 2.001 0 0 0-.406.66 2.334 2.334 0 0 0-.145.836c0 .309.049.592.145.85.097.257.23.477.4.66.171.184.376.327.614.43.238.103.499.155.782.155.328 0 .615-.064.86-.193.244-.129.44-.296.588-.502l1.15 1.081z"/><path fill="url(#a)" d="M55 5V63A1.995 1.995 0 0 1 52.994 65H2.006A2.002 2.002 0 0 1 0 63.001V0h55v5z"/><path fill="#F8FAFC" d="M29.38 47.104c-.216.028-.341.235-.341.456 0 .861.61 1.644 1.311 1.82.211.052.413.036.508-.162.097-.199-.02-.418-.215-.517-.462-.232-.717-.45-.822-1.194-.032-.219-.225-.432-.441-.403m-3.684.403c-.105.744-.36.962-.822 1.194-.195.099-.312.318-.216.517.096.198.298.214.508.162.702-.176 1.311-.959 1.311-1.82 0-.22-.124-.428-.34-.456-.216-.03-.41.184-.44.403m12.049-12.75c0-3.023-1.772-6.743-6.71-10.808-.868-.714-1.533-1.574-1.757-2.55-.02-.085-.003-.216.107-.243.116-.03.204.042.263.158.596 1.182 1.024 1.564 1.948 2.263 2.973 2.248 8.528 5.402 8.528 11.59 0 4.79-4.112 8.826-5.87 9.708-.238.12-.484.165-.572.003-.09-.166.011-.342.24-.582 2.138-2.244 3.823-5.022 3.823-9.54m-11.95.104c0 2.775.19 4.948 1.605 8.89.417 1.157.813 1.259 1.129 1.302a5.56 5.56 0 0 1 1.63.49c.508.238.99.541 1.472.997.142.133.258.203.391.215.133.01.283-.033.494-.087 4.624-1.448 9.971-5.156 9.971-12.103 0-9.614-13.325-11.155-13.4-16.608-.023-1.784.355-2.47.431-2.721.029-.097-.007-.18-.074-.205-.095-.035-.156.031-.187.086-.122.213-.185.438-.518.317-.267-.097-.355-1.048-.457-1.338-.038-.107-.102-.157-.185-.138-.084.02-.132.093-.115.195.046.263.455 1.801.455 3.9 0 8.75-2.642 11.621-2.642 16.808m1.738-18.75a119.454 119.454 0 0 0-.257-4.864.258.258 0 0 0-.27-.246c-.104.006-.245.09-.236.263.065 1.539.207 3.872.158 6.063-.031 1.368-.215 2.578-.377 3.268-1.312 5.576-6.91 7.79-7.139 13.745-.103 2.699.383 7 5.963 10.922.19.135.49.255.688.061.131-.129.216-.344-.065-.754-1.845-2.699-3.813-5.486-3.813-9.543 0-3.774 1.47-5.963 2.887-8.309 1.196-1.98 2.571-4.15 2.493-8.616-.011-.673-.01-1.293-.032-1.99M15.673 34.372c.34-6.144 8.2-11.045 9.879-14.434.562-1.133.743-1.742.743-3.612 0-.883-.16-2.85-.17-3.005-.015-.202-.147-.264-.26-.256-.117.008-.252.082-.243.275.01.194.125 1.977.121 3.207-.005 1.446-.394 2.055-.473 2.269-1.655 4.472-12.343 6.834-12.343 15.748 0 7.169 5.82 10.907 10.533 12.159.199.052.4.012.478-.168a.37.37 0 0 0-.192-.476c-5.394-2.848-8.349-6.744-8.073-11.707M27.783 50c.237 0 .399-.195.399-.434l.028-2.492a.43.43 0 0 0-.426-.432.43.43 0 0 0-.427.432l.029 2.492c0 .239.163.434.398.434"/></g></svg>