<svg xmlns="http://www.w3.org/2000/svg" fill-rule="evenodd" stroke-linejoin="round" stroke-miterlimit="1.414" clip-rule="evenodd" viewBox="0 0 268 73"><path fill="#6d9bd2" fill-rule="nonzero" d="M112.78 66.476a6.446 6.446 0 0 1-6.447 6.447 6.448 6.448 0 0 1 0-12.893 6.448 6.448 0 0 1 6.447 6.446M145.908 66.476a6.446 6.446 0 0 1-6.446 6.447 6.448 6.448 0 0 1-6.444-6.447 6.45 6.45 0 0 1 6.444-6.446 6.447 6.447 0 0 1 6.446 6.446M179.036 66.476a6.446 6.446 0 0 1-6.447 6.447 6.448 6.448 0 0 1 0-12.893 6.448 6.448 0 0 1 6.447 6.446"/><path d="M23.625 0c12.203.109 23.389 10.225 23.41 23.257.015 9.929-6.664 19.493-16.372 22.443-10.535 3.2-23.084-1.364-28.22-11.169C-4.763 20.774 4.515.281 23.141.002 23.302 0 23.464 0 23.625 0zm-.381 8.879c-4.223.04-8.347 2.063-10.821 5.483-5.231 7.232-2.587 19.456 6.275 22.694 5.54 2.025 12.318.12 15.782-4.791 5.86-8.309 1.279-23.036-10.762-23.381a18.727 18.727 0 0 0-.474-.005zM65.455 46.023h-9.501V.743c6.099 0 12.198-.026 18.297.001 9.548.129 18.962 7.338 16.917 18.661-.651 3.602-2.714 6.915-5.668 9.069-3.546 2.584-8.035 3.579-12.363 3.597h-7.682v13.952zm0-36.461v13.751c5.245 0 11.009 1.124 14.488-2.246 2.641-2.558 2.517-7.602-.457-9.846-1.698-1.281-3.916-1.636-5.975-1.658-2.685-.01-5.371-.001-8.056-.001zM137.97 26.45c-.048 7.023-2.423 14.531-9.529 18.101-3.352 1.684-7.169 2.242-10.887 2.14-6.621-.182-13.461-3.055-16.599-9.829-1.45-3.131-1.979-6.62-2.002-10.044V.743h9.501c0 8.599-.034 17.197.001 25.795.011.92.028 1.063.071 1.56.284 3.317 1.592 6.802 4.731 8.521 4.306 2.358 10.464 1.727 13.341-2.561 1.447-2.157 1.858-4.842 1.868-7.393V.743h9.505c0 8.569.019 17.138-.001 25.707zM162.151.125c5.787.041 11.473 1.935 16.075 5.576l.796.636-5.156 7.27-.95-.703c-3.897-2.844-8.657-5.087-13.467-3.863-2.177.553-4.583 2.39-3.501 5.509 1.124 3.239 6.732 3.739 10.653 4.776 5.434 1.461 11.135 4.037 12.797 9.221 1.846 5.755-.583 12.681-6.023 15.767-8.813 4.999-20.885 1.882-28.431-4.743l-.807-.717 5.786-6.878.911.783c4.238 3.595 9.566 6.132 15.181 5.046.222-.043.444-.094.663-.153 2.039-.552 4.008-2.049 3.789-4.777-.434-5.412-11.934-5.637-16.184-7.458-5.012-2.148-8.649-7.18-7.954-13.325.36-3.178 1.981-6.183 4.423-8.244 3.125-2.636 7.34-3.733 11.399-3.723z"/><path fill="#6d9bd2" d="M209.382 46.332h-7.953L182.613.744h10.474l12.44 31.723L217.912.744h10.286l-18.816 45.588zM244.357 37.201h22.818v8.819h-32.319V.744h9.501v36.457z"/></svg>