<svg xmlns="http://www.w3.org/2000/svg" viewBox="0 0 55 70">
    <title>
        Group 8 Copy 5
    </title>
    <g id="Perlorg" fill="none" fill-rule="evenodd">
        <g id="Home" transform="translate(-1117 -883)">
            <g id="calendar" transform="translate(890 883)">
                <g id="Group-8-Copy-5" transform="translate(227)">
                    <path id="Rectangle-14" fill="#61C5BA" d="M0 0h55v70H0z"/>
                    <path id="ic-calendar" fill="#00456E" d="M13 25l1-1v26l-1-1h29l-1 1V24l1 1H13zm0-1h29v26H13V24zm.5 9H42v-1H13v1h.5zM25 37h3v3h-3v-3zm0 5h3v3h-3v-3zm-5 0h3v3h-3v-3zm10-5h3v3h-3v-3zm0 5h3v3h-3v-3zm5-5h3v3h-3v-3zm0 5h3v3h-3v-3zM20 21h3v9h-3v-9zm12 0h3v9h-3v-9z"/>
                </g>
            </g>
        </g>
    </g>
</svg>
