<svg xmlns="http://www.w3.org/2000/svg" viewBox="0 0 55 70">
    <title>
        Group 8 Copy 2
    </title>
    <g id="Perlorg" fill="none" fill-rule="evenodd">
        <g id="Home" transform="translate(-1117 -642)">
            <g id="docs" transform="translate(890 642)">
                <g id="Group-8-Copy-2" transform="translate(227)">
                    <path id="Rectangle-14" fill="#61C5BA" d="M0 0h55v70H0z"/>
                    <path id="Paper-2" fill="#00456E" d="M37.13 29.726c-.012-.125-.049-.248-.141-.34l-7.229-7.227c-.092-.094-.213-.133-.34-.141-.018-.002-.025-.018-.039-.018H18.537c-.295 0-.537.242-.537.537V48.438c0 .297.242.539.537.539h18.07c.297 0 .537-.242.537-.539V29.766c.002-.014-.012-.024-.014-.04zm-7.211-5.888l5.391 5.391h-4.123c-.697 0-1.268-.568-1.268-1.27v-4.121zm6.15 24.064H19.077V23.077h9.766v4.881c0 1.293 1.051 2.346 2.344 2.346h4.883v17.598h-.001z"/>
                </g>
            </g>
        </g>
    </g>
</svg>
