<svg xmlns="http://www.w3.org/2000/svg" viewBox="0 0 55 70">
    <title>
        Group 8 Copy
    </title>
    <g id="Perlorg" fill="none" fill-rule="evenodd">
        <g id="Home" transform="translate(-797 -642)">
            <g id="community" transform="translate(570 642)">
                <g id="Group-8-Copy" transform="translate(227)">
                    <path id="Rectangle-14" fill="#61C5BA" d="M0 0h55v70H0z"/>
                    <path id="User-2" fill="#00456E" d="M27.845 40.243c3.453 0 6.262-2.807 6.262-6.26V28.26c0-3.453-2.809-6.26-6.262-6.26-3.451 0-6.26 2.807-6.26 6.26v5.723c0 3.454 2.809 6.26 6.26 6.26zm-5.184-11.982c0-2.857 2.324-5.184 5.184-5.184 2.861 0 5.186 2.326 5.186 5.184v5.723c0 2.857-2.324 5.186-5.186 5.186-2.859 0-5.184-2.328-5.184-5.186v-5.723zm-8.555 19.492c.148-1.594 1.01-6.273 5.969-8.768 1.684 2.652 4.615 4.279 7.77 4.279 3.155 0 6.086-1.627 7.77-4.279 4.961 2.494 5.82 7.174 5.969 8.768H14.106zm21.522-9.955c-.254-.117-.555-.018-.693.227-1.438 2.568-4.156 4.164-7.09 4.164s-5.652-1.596-7.09-4.164c-.139-.244-.443-.346-.693-.227C13.083 40.978 13 48.218 13 48.29c0 .145.057.281.158.381.102.102.238.158.381.158h28.613c.143 0 .281-.057.381-.158.102-.1.156-.236.156-.381-.001-.072-.085-7.312-7.061-10.492z"/>
                </g>
            </g>
        </g>
    </g>
</svg>
