<svg xmlns="http://www.w3.org/2000/svg" fill-rule="evenodd" stroke-linejoin="round" stroke-miterlimit="1.41421" clip-rule="evenodd" viewBox="0 0 143 65">
    <path fill="#61c5ba" d="M69.685 55.8c0 .228-.046.442-.137.642-.091.2-.211.374-.36.522-.148.149-.325.266-.53.351-.206.086-.417.129-.634.129-.228 0-.445-.04-.651-.12-.205-.08-.385-.194-.539-.343-.154-.148-.277-.319-.368-.513-.091-.194-.137-.405-.137-.634 0-.228.046-.442.137-.642.091-.199.214-.374.368-.522.154-.148.334-.265.539-.351.206-.086.423-.128.651-.128.217 0 .428.042.634.128.205.086.382.2.53.343.149.142.269.313.36.513.091.2.137.408.137.625zm0 5.496c0 .228-.046.442-.137.642-.091.2-.211.371-.36.514-.148.142-.325.257-.53.342-.206.086-.417.129-.634.129-.228 0-.445-.04-.651-.12-.205-.08-.385-.194-.539-.343-.154-.148-.277-.319-.368-.513-.091-.194-.137-.405-.137-.634 0-.228.046-.442.137-.642.091-.2.214-.374.368-.522.154-.148.334-.265.539-.351.206-.086.423-.128.651-.128.217 0 .428.042.634.128.205.086.382.2.53.342.149.143.269.314.36.514.091.2.137.414.137.642zm6.521-5.496c0 .228-.046.442-.137.642-.092.2-.212.374-.36.522-.148.149-.325.266-.531.351-.205.086-.416.129-.633.129-.229 0-.445-.04-.651-.12-.205-.08-.385-.194-.539-.343-.154-.148-.277-.319-.368-.513-.092-.194-.137-.405-.137-.634 0-.228.045-.442.137-.642.091-.199.214-.374.368-.522.154-.148.334-.265.539-.351.206-.086.422-.128.651-.128.217 0 .428.042.633.128.206.086.383.2.531.343.148.142.268.313.36.513.091.2.137.408.137.625zm0 5.496c0 .228-.046.442-.137.642-.092.2-.212.371-.36.514-.148.142-.325.257-.531.342-.205.086-.416.129-.633.129-.229 0-.445-.04-.651-.12-.205-.08-.385-.194-.539-.343-.154-.148-.277-.319-.368-.513-.092-.194-.137-.405-.137-.634 0-.228.045-.442.137-.642.091-.2.214-.374.368-.522.154-.148.334-.265.539-.351.206-.086.422-.128.651-.128.217 0 .428.042.633.128.206.086.383.2.531.342.148.143.268.314.36.514.091.2.137.414.137.642z"/>
    <path fill="#f8fafc" d="M89.148 26.505c0 1.746-.326 3.217-.977 4.414-.652 1.197-1.53 2.162-2.635 2.894-1.105.732-2.379 1.267-3.824 1.605-1.445.338-2.947.507-4.505.507h-3.612v11.28h-7.266v-29.91h11.048c1.643 0 3.18.162 4.611.486 1.431.324 2.677.845 3.739 1.563 1.063.718 1.898 1.662 2.508 2.83.609 1.169.913 2.613.913 4.331zm-7.266.042c0-.704-.142-1.282-.425-1.732-.284-.451-.666-.803-1.148-1.056-.481-.254-1.027-.423-1.636-.507-.609-.085-1.239-.127-1.891-.127h-3.187v7.055h3.06c.68 0 1.331-.056 1.955-.169.623-.113 1.182-.31 1.678-.591.496-.282.885-.655 1.169-1.12.283-.465.425-1.049.425-1.753zm23.119 7.731c0-1.099-.347-2.042-1.041-2.831-.695-.788-1.736-1.183-3.124-1.183-.68 0-1.303.106-1.869.317-.567.212-1.063.5-1.488.866-.425.366-.765.796-1.02 1.289-.255.493-.396 1.007-.425 1.542h8.967zm6.416 2.661v.845c0 .282-.014.549-.042.803H96.034c.057.591.234 1.126.532 1.605.297.479.68.894 1.147 1.246.467.353.991.627 1.572.824.581.197 1.183.296 1.806.296 1.105 0 2.04-.204 2.805-.613.765-.408 1.388-.936 1.87-1.584l4.844 3.042c-.992 1.436-2.302 2.542-3.931 3.316-1.629.775-3.52 1.162-5.673 1.162-1.586 0-3.088-.246-4.504-.739-1.417-.493-2.656-1.211-3.718-2.155-1.063-.943-1.898-2.105-2.507-3.485-.61-1.38-.914-2.957-.914-4.732 0-1.718.297-3.274.892-4.668.595-1.394 1.403-2.577 2.422-3.549 1.02-.971 2.224-1.725 3.612-2.26 1.389-.535 2.89-.802 4.505-.802 1.558 0 2.988.26 4.292.781 1.303.521 2.422 1.275 3.357 2.26.934.986 1.664 2.183 2.188 3.591.524 1.408.786 3.014.786 4.816zm18.247-5.111c-.311-.085-.616-.141-.913-.169-.298-.029-.588-.043-.872-.043-.934 0-1.721.169-2.358.507-.637.338-1.147.747-1.53 1.225-.382.479-.658 1-.828 1.563-.17.564-.255 1.057-.255 1.479v10.815h-6.969V26.167h6.714v3.041h.085c.538-1.07 1.303-1.943 2.294-2.619.992-.676 2.139-1.014 3.442-1.014.284 0 .56.014.829.042.269.029.489.071.659.127l-.298 6.084zm4.934 15.377v-29.91h7.054v29.91h-7.054z"/>
    <path fill="#61c5ba" d="M89.214 58.534c0 .752-.139 1.4-.418 1.946-.279.545-.646.994-1.103 1.346-.457.351-.972.61-1.546.775-.573.166-1.155.249-1.745.249h-3.201v-8.583h3.104c.606 0 1.204.071 1.794.212.59.141 1.115.376 1.576.703.46.327.832.766 1.115 1.315.283.55.424 1.229.424 2.037zm-2.157 0c0-.485-.079-.887-.237-1.206-.157-.319-.368-.574-.63-.764-.263-.19-.562-.325-.897-.406-.336-.081-.681-.121-1.037-.121h-1.03v5.019h.982c.371 0 .729-.043 1.073-.128.343-.084.646-.224.909-.418.262-.194.473-.452.63-.776.158-.323.237-.723.237-1.2zm14.292-.012c0 .679-.117 1.299-.351 1.861-.234.562-.56 1.042-.976 1.443-.416.4-.911.709-1.485.927-.574.218-1.196.327-1.867.327s-1.291-.109-1.861-.327c-.57-.218-1.063-.527-1.479-.927-.416-.401-.741-.881-.976-1.443-.234-.562-.351-1.182-.351-1.861 0-.687.117-1.307.351-1.861.235-.553.56-1.024.976-1.412.416-.388.909-.687 1.479-.897.57-.21 1.19-.315 1.861-.315s1.293.105 1.867.315c.574.21 1.069.509 1.485.897.416.388.742.859.976 1.412.234.554.351 1.174.351 1.861zm-2.218 0c0-.372-.061-.719-.182-1.043-.121-.323-.289-.6-.503-.83-.214-.23-.473-.412-.776-.545-.303-.134-.636-.201-1-.201s-.695.067-.994.201c-.299.133-.558.315-.776.545-.218.23-.386.507-.503.83-.117.324-.176.671-.176 1.043 0 .388.061.746.182 1.073.121.327.289.608.503.842.214.235.471.419.77.552.299.133.63.2.994.2s.695-.067.994-.2c.299-.133.558-.317.776-.552.218-.234.388-.515.509-.842.121-.327.182-.685.182-1.073zm12.959 3.14c-.379.436-.848.782-1.406 1.036-.558.255-1.2.382-1.927.382-.663 0-1.275-.109-1.837-.327-.562-.218-1.049-.527-1.461-.927-.412-.401-.735-.879-.97-1.437-.234-.558-.351-1.172-.351-1.843 0-.687.119-1.309.357-1.867.239-.557.568-1.032.988-1.424.421-.392.914-.693 1.479-.903.566-.21 1.176-.315 1.831-.315.606 0 1.202.107 1.788.321.586.214 1.061.527 1.425.939l-1.407 1.407c-.194-.267-.448-.465-.763-.594-.316-.13-.639-.194-.97-.194-.364 0-.697.066-1 .2-.304.133-.564.317-.782.551-.219.235-.388.511-.51.831-.121.319-.181.668-.181 1.048 0 .388.06.744.181 1.067.122.323.289.6.504.831.214.23.47.41.769.539.299.129.627.194.982.194.412 0 .772-.081 1.079-.243.307-.161.554-.371.74-.63l1.442 1.358z"/>
    <path fill="none" d="M55 4.999v58.002C55 64.105 54.114 65 52.994 65H2.006C.898 65 0 64.106 0 63.001V0h55v4.999z"/>
    <path fill="#f8fafc" d="M27.149 58.538c-.338.044-.534.37-.534.716 0 1.351.956 2.578 2.056 2.853.331.083.647.058.797-.254.152-.31-.032-.655-.338-.81-.724-.364-1.124-.706-1.289-1.872-.05-.344-.353-.678-.692-.633m-5.776.633c-.165 1.166-.566 1.508-1.289 1.872-.307.155-.49.5-.339.81.151.312.467.337.797.254 1.1-.275 2.056-1.502 2.056-2.853 0-.346-.196-.672-.534-.716-.339-.045-.642.289-.691.633m18.896-19.996c0-4.741-2.779-10.573-10.523-16.948-1.361-1.121-2.403-2.469-2.754-3.999-.031-.134-.005-.339.167-.382.183-.047.321.067.412.249.935 1.853 1.607 2.452 3.055 3.548C35.289 25.168 44 30.115 44 39.819c0 7.511-6.449 13.84-9.205 15.223-.374.188-.759.259-.897.006-.14-.261.017-.537.377-.912 3.352-3.519 5.994-7.877 5.994-14.961m-18.74.163c0 4.352.298 7.759 2.518 13.94.653 1.815 1.274 1.975 1.769 2.042.924.125 1.763.397 2.558.77.796.373 1.552.848 2.307 1.563.224.208.404.318.614.337.208.016.443-.052.773-.137 7.253-2.271 15.638-8.085 15.638-18.979 0-15.077-20.897-17.494-21.013-26.046-.037-2.797.556-3.872.675-4.267.045-.152-.011-.282-.117-.321-.148-.055-.244.048-.292.134-.191.335-.291.687-.813.498-.419-.153-.557-1.644-.717-2.098-.059-.169-.16-.246-.29-.217-.131.03-.207.145-.181.305.072.413.714 2.825.714 6.117 0 13.721-4.143 18.224-4.143 26.359m2.725-29.405c-.116-3.725-.353-6.953-.403-7.628-.02-.283-.263-.394-.422-.385-.164.01-.386.141-.371.412.101 2.414.325 6.073.248 9.508-.049 2.146-.337 4.042-.592 5.125-2.057 8.745-10.835 12.217-11.194 21.556-.162 4.232.6 10.976 9.35 17.127.299.211.77.4 1.079.097.206-.202.339-.54-.101-1.183-2.894-4.233-5.98-8.604-5.98-14.966 0-5.918 2.306-9.351 4.527-13.03 1.875-3.106 4.032-6.509 3.91-13.512-.018-1.056-.017-2.028-.051-3.121m-18.6 28.64c.534-9.635 12.859-17.322 15.492-22.636.882-1.777 1.165-2.732 1.165-5.665 0-1.384-.25-4.47-.267-4.713-.023-.316-.229-.413-.408-.401-.182.012-.394.128-.379.431.015.304.196 3.101.189 5.029-.007 2.268-.618 3.224-.742 3.559C18.108 21.19 1.348 24.895 1.348 38.874c0 11.241 9.128 17.103 16.518 19.067.311.082.628.018.749-.264.125-.285-.027-.621-.301-.746-8.459-4.466-13.093-10.575-12.66-18.358M24.647 63.08c.369 0 .624-.306.624-.68l.045-3.908c0-.373-.3-.678-.669-.678-.369 0-.669.305-.669.678l.044 3.908c0 .374.256.68.625.68"/>
</svg>
